<?xml version="1.0" encoding="utf-8"?>
<!-- Generator: Adobe Illustrator 16.0.0, SVG Export Plug-In . SVG Version: 6.00 Build 0)  -->
<!DOCTYPE svg PUBLIC "-//W3C//DTD SVG 1.1//EN" "http://www.w3.org/Graphics/SVG/1.1/DTD/svg11.dtd">
<svg version="1.1" id="Layer_1" xmlns="http://www.w3.org/2000/svg" xmlns:xlink="http://www.w3.org/1999/xlink" x="0px" y="0px"
	 width="141px" height="147.5px" viewBox="0 0 141 147.5" enable-background="new 0 0 141 147.5" xml:space="preserve">
<g id="breadboard">
	<g id="icon">
		<g id="Layer_5">
			<g>
				<path fill="#E6E7E8" d="M5.015,145.931H130.89v-3.063l7.375-7.688l0.063-93.063l-7.354-7.271l-0.021-29.261l-3.563-3.656H5.015
					V145.931z M30.056,140.014c0,2.462-1.996,4.458-4.458,4.458c-2.463,0-4.459-1.996-4.459-4.458s1.996-4.458,4.459-4.458
					C28.06,135.556,30.056,137.552,30.056,140.014z M135.39,127.681c0,2.462-1.996,4.458-4.459,4.458s-4.459-1.996-4.459-4.458
					s1.996-4.458,4.459-4.458S135.39,125.219,135.39,127.681z M135.39,48.348c0,2.462-1.996,4.458-4.459,4.458
					s-4.459-1.996-4.459-4.458s1.996-4.458,4.459-4.458S135.39,45.886,135.39,48.348z M27.39,32.514
					c0,2.462-1.996,4.458-4.459,4.458c-2.462,0-4.458-1.996-4.458-4.458s1.996-4.458,4.458-4.458
					C25.394,28.056,27.39,30.052,27.39,32.514z"/>
				<path fill="#BCBEC0" d="M138.827,41.909v0.209l-0.063,93.264l-7.375,7.688v3.361H4.515v-145h123.086l3.852,3.953l0.021,29.255
					L138.827,41.909z M137.765,134.979l0.063-92.652l-7.354-7.271L130.452,5.79l-3.273-3.359H5.515v143H130.39v-2.764
					L137.765,134.979z M135.89,48.348c0,2.733-2.225,4.958-4.959,4.958s-4.959-2.225-4.959-4.958s2.225-4.958,4.959-4.958
					S135.89,45.614,135.89,48.348z M126.972,48.348c0,2.183,1.775,3.958,3.959,3.958c2.182,0,3.959-1.775,3.959-3.958
					s-1.777-3.958-3.959-3.958C128.747,44.39,126.972,46.165,126.972,48.348z M135.89,127.681c0,2.733-2.225,4.958-4.959,4.958
					s-4.959-2.225-4.959-4.958s2.225-4.958,4.959-4.958S135.89,124.947,135.89,127.681z M126.972,127.681
					c0,2.183,1.775,3.958,3.959,3.958c2.182,0,3.959-1.775,3.959-3.958s-1.777-3.958-3.959-3.958
					C128.747,123.723,126.972,125.498,126.972,127.681z M30.556,140.014c0,2.733-2.225,4.958-4.958,4.958
					c-2.734,0-4.959-2.225-4.959-4.958s2.225-4.958,4.959-4.958C28.331,135.056,30.556,137.28,30.556,140.014z M21.639,140.014
					c0,2.183,1.776,3.958,3.959,3.958s3.958-1.775,3.958-3.958s-1.775-3.958-3.958-3.958S21.639,137.831,21.639,140.014z
					 M27.89,32.514c0,2.733-2.225,4.958-4.959,4.958c-2.733,0-4.958-2.225-4.958-4.958s2.225-4.958,4.958-4.958
					C25.665,27.556,27.89,29.78,27.89,32.514z M18.973,32.514c0,2.183,1.775,3.958,3.958,3.958s3.959-1.775,3.959-3.958
					s-1.776-3.958-3.959-3.958S18.973,30.331,18.973,32.514z"/>
			</g>
			<g id="rect354_1_">
				<rect x="48.225" y="138.816" fill="#414141" width="7.114" height="7.114"/>
			</g>
			<g id="rect356_1_">
				<rect x="50.407" y="141" fill="#010101" width="2.746" height="2.747"/>
			</g>
			<g id="polygon360_1_">
				<polygon fill="#484848" points="54.169,139.987 53.156,141.002 53.156,143.75 54.169,144.761 				"/>
			</g>
			<g id="polygon362_1_">
				<polygon fill="#5A5A5A" points="54.168,144.761 53.156,143.75 50.405,143.75 49.393,144.761 				"/>
			</g>
			<g id="polygon364_1_">
				<polygon fill="#373737" points="49.393,144.761 50.405,143.748 50.405,140.998 49.393,139.987 				"/>
			</g>
			<g id="rect390_1_">
				<rect x="41.091" y="138.816" fill="#414141" width="7.114" height="7.114"/>
			</g>
			<g id="rect392_1_">
				<rect x="43.272" y="141" fill="#010101" width="2.75" height="2.747"/>
			</g>
			<g id="polygon396_1_">
				<polygon fill="#484848" points="47.035,139.987 46.021,141.002 46.021,143.75 47.035,144.761 				"/>
			</g>
			<g id="polygon398_1_">
				<polygon fill="#5A5A5A" points="47.033,144.761 46.021,143.75 43.271,143.75 42.259,144.761 				"/>
			</g>
			<g id="polygon400_1_">
				<polygon fill="#373737" points="42.259,144.761 43.271,143.748 43.271,140.998 42.259,139.987 				"/>
			</g>
			<g id="rect402_1_">
				<rect x="33.956" y="138.816" fill="#414141" width="7.114" height="7.114"/>
			</g>
			<g id="rect404_1_">
				<rect x="36.139" y="141" fill="#010101" width="2.749" height="2.747"/>
			</g>
			<g id="polygon408_1_">
				<polygon fill="#484848" points="39.9,139.987 38.886,141.002 38.886,143.75 39.9,144.761 				"/>
			</g>
			<g id="polygon410_1_">
				<polygon fill="#5A5A5A" points="39.899,144.761 38.886,143.75 36.137,143.75 35.123,144.761 				"/>
			</g>
			<g id="polygon412_1_">
				<polygon fill="#373737" points="35.123,144.761 36.137,143.748 36.137,140.998 35.123,139.987 				"/>
			</g>
			<g id="rect414_1_">
				<rect x="55.337" y="138.816" fill="#414141" width="7.116" height="7.114"/>
			</g>
			<g id="rect416_1_">
				<rect x="57.521" y="141" fill="#010101" width="2.746" height="2.747"/>
			</g>
			<g id="polygon420_1_">
				<polygon fill="#484848" points="61.283,139.987 60.268,141.002 60.268,143.75 61.283,144.761 				"/>
			</g>
			<g id="polygon422_1_">
				<polygon fill="#5A5A5A" points="61.281,144.761 60.268,143.75 57.518,143.75 56.507,144.761 				"/>
			</g>
			<g id="polygon424_1_">
				<polygon fill="#373737" points="56.507,144.761 57.518,143.748 57.518,140.998 56.507,139.987 				"/>
			</g>
			<g id="rect426_1_">
				<rect x="62.451" y="138.816" fill="#414141" width="7.116" height="7.114"/>
			</g>
			<g id="rect428_1_">
				<rect x="64.635" y="141" fill="#010101" width="2.749" height="2.747"/>
			</g>
			<g id="polygon432_1_">
				<polygon fill="#484848" points="68.396,139.987 67.384,141.002 67.384,143.75 68.396,144.761 				"/>
			</g>
			<g id="polygon434_1_">
				<polygon fill="#5A5A5A" points="68.396,144.761 67.384,143.75 64.633,143.75 63.619,144.761 				"/>
			</g>
			<g id="polygon436_1_">
				<polygon fill="#373737" points="63.619,144.761 64.633,143.748 64.633,140.998 63.619,139.987 				"/>
			</g>
			<g id="rect438_1_">
				<rect x="69.563" y="138.816" fill="#414141" width="7.115" height="7.114"/>
			</g>
			<g id="rect440_1_">
				<rect x="71.746" y="141" fill="#010101" width="2.748" height="2.747"/>
			</g>
			<g id="polygon444_1_">
				<polygon fill="#484848" points="75.509,139.987 74.496,141.002 74.496,143.75 75.509,144.761 				"/>
			</g>
			<g id="polygon446_1_">
				<polygon fill="#5A5A5A" points="75.509,144.761 74.494,143.75 71.746,143.75 70.731,144.761 				"/>
			</g>
			<g id="polygon448_1_">
				<polygon fill="#373737" points="70.731,144.761 71.746,143.748 71.746,140.998 70.731,139.987 				"/>
			</g>
			<g id="rect450_1_">
				<rect x="84.495" y="138.816" fill="#414141" width="7.114" height="7.114"/>
			</g>
			<g id="rect452_1_">
				<rect x="86.678" y="141" fill="#010101" width="2.746" height="2.747"/>
			</g>
			<g id="polygon456_1_">
				<polygon fill="#484848" points="90.44,139.987 89.427,141.002 89.427,143.75 90.44,144.761 				"/>
			</g>
			<g id="polygon458_1_">
				<polygon fill="#5A5A5A" points="90.438,144.761 89.426,143.75 86.677,143.75 85.665,144.761 				"/>
			</g>
			<g id="polygon460_1_">
				<polygon fill="#373737" points="85.665,144.761 86.677,143.748 86.677,140.998 85.665,139.987 				"/>
			</g>
			<g id="rect462_1_">
				<rect x="91.609" y="138.816" fill="#414141" width="7.114" height="7.114"/>
			</g>
			<g id="rect464_1_">
				<rect x="93.791" y="141" fill="#010101" width="2.749" height="2.747"/>
			</g>
			<g id="polygon468_1_">
				<polygon fill="#484848" points="97.555,139.987 96.541,141.002 96.541,143.75 97.555,144.761 				"/>
			</g>
			<g id="polygon470_1_">
				<polygon fill="#5A5A5A" points="97.553,144.761 96.539,143.75 93.789,143.75 92.779,144.761 				"/>
			</g>
			<g id="polygon472_1_">
				<polygon fill="#373737" points="92.777,144.761 93.789,143.748 93.789,140.998 92.777,139.987 				"/>
			</g>
			<g id="rect474_1_">
				<rect x="98.724" y="138.816" fill="#414141" width="7.116" height="7.114"/>
			</g>
			<g id="rect476_1_">
				<rect x="100.905" y="141" fill="#010101" width="2.749" height="2.747"/>
			</g>
			<g id="polygon480_1_">
				<polygon fill="#484848" points="104.667,139.987 103.652,141.002 103.652,143.75 104.667,144.761 				"/>
			</g>
			<g id="polygon482_1_">
				<polygon fill="#5A5A5A" points="104.667,144.761 103.652,143.75 100.904,143.75 99.89,144.761 				"/>
			</g>
			<g id="polygon484_1_">
				<polygon fill="#373737" points="99.89,144.761 100.904,143.748 100.904,140.998 99.89,139.987 				"/>
			</g>
			<g id="rect486_1_">
				<rect x="105.836" y="138.816" fill="#414141" width="7.113" height="7.114"/>
			</g>
			<g id="rect488_1_">
				<rect x="108.021" y="141" fill="#010101" width="2.746" height="2.747"/>
			</g>
			<g id="polygon492_1_">
				<polygon fill="#484848" points="111.78,139.987 110.769,141.002 110.769,143.75 111.78,144.761 				"/>
			</g>
			<g id="polygon494_1_">
				<polygon fill="#5A5A5A" points="111.78,144.761 110.767,143.75 108.018,143.75 107.005,144.761 				"/>
			</g>
			<g id="polygon496_1_">
				<polygon fill="#373737" points="107.005,144.761 108.018,143.748 108.018,140.998 107.005,139.987 				"/>
			</g>
			<g id="rect498_1_">
				<rect x="112.949" y="138.816" fill="#414141" width="7.112" height="7.114"/>
			</g>
			<g id="rect500_1_">
				<rect x="115.132" y="141" fill="#010101" width="2.746" height="2.747"/>
			</g>
			<g id="polygon504_1_">
				<polygon fill="#484848" points="118.894,139.987 117.88,141.002 117.88,143.75 118.894,144.761 				"/>
			</g>
			<g id="polygon506_1_">
				<polygon fill="#5A5A5A" points="118.892,144.761 117.878,143.75 115.132,143.75 114.117,144.761 				"/>
			</g>
			<g id="polygon508_1_">
				<polygon fill="#373737" points="114.117,144.761 115.132,143.748 115.132,140.998 114.117,139.987 				"/>
			</g>
			<g id="rect510_1_">
				<rect x="120.062" y="138.816" fill="#414141" width="7.115" height="7.114"/>
			</g>
			<g id="rect512_1_">
				<rect x="122.245" y="141" fill="#010101" width="2.746" height="2.747"/>
			</g>
			<g id="polygon516_1_">
				<polygon fill="#484848" points="126.007,139.987 124.993,141.002 124.993,143.75 126.007,144.761 				"/>
			</g>
			<g id="polygon518_1_">
				<polygon fill="#5A5A5A" points="126.005,144.761 124.991,143.75 122.243,143.75 121.231,144.761 				"/>
			</g>
			<g id="polygon520_1_">
				<polygon fill="#373737" points="121.231,144.761 122.243,143.748 122.243,140.998 121.231,139.987 				"/>
			</g>
			<g id="rect306_1_">
				<rect x="8.151" y="1.87" fill="#414141" width="7.116" height="7.114"/>
			</g>
			<g id="rect308_1_">
				<rect x="10.335" y="4.052" fill="#010101" width="2.749" height="2.749"/>
			</g>
			<g id="polygon310_1_">
				<polygon fill="#2A2A29" points="9.321,3.038 10.335,4.052 13.083,4.052 14.096,3.038 				"/>
			</g>
			<g id="polygon312_1_">
				<polygon fill="#484848" points="14.097,3.038 13.083,4.054 13.083,6.802 14.097,7.814 				"/>
			</g>
			<g id="polygon316_1_">
				<polygon fill="#373737" points="9.32,7.814 10.334,6.801 10.334,4.052 9.32,3.038 				"/>
			</g>
			<g id="rect318_1_">
				<rect x="15.266" y="1.87" fill="#414141" width="7.112" height="7.114"/>
			</g>
			<g id="rect320_1_">
				<rect x="17.448" y="4.052" fill="#010101" width="2.746" height="2.749"/>
			</g>
			<g id="polygon322_1_">
				<polygon fill="#2A2A29" points="16.434,3.038 17.446,4.052 20.195,4.052 21.209,3.038 				"/>
			</g>
			<g id="polygon324_1_">
				<polygon fill="#484848" points="21.209,3.038 20.195,4.054 20.195,6.802 21.209,7.814 				"/>
			</g>
			<g id="polygon328_1_">
				<polygon fill="#373737" points="16.433,7.814 17.446,6.801 17.446,4.052 16.433,3.038 				"/>
			</g>
			<g id="rect330_1_">
				<rect x="22.378" y="1.87" fill="#414141" width="7.116" height="7.114"/>
			</g>
			<g id="rect332_1_">
				<rect x="24.562" y="4.052" fill="#010101" width="2.747" height="2.749"/>
			</g>
			<g id="polygon334_1_">
				<polygon fill="#2A2A29" points="23.548,3.038 24.561,4.052 27.311,4.052 28.323,3.038 				"/>
			</g>
			<g id="polygon336_1_">
				<polygon fill="#484848" points="28.323,3.038 27.311,4.054 27.311,6.802 28.323,7.814 				"/>
			</g>
			<g id="polygon340_1_">
				<polygon fill="#373737" points="23.547,7.814 24.559,6.801 24.559,4.052 23.547,3.038 				"/>
			</g>
			<g id="rect342_1_">
				<rect x="29.492" y="1.87" fill="#414141" width="7.114" height="7.114"/>
			</g>
			<g id="rect344_1_">
				<rect x="31.675" y="4.052" fill="#010101" width="2.747" height="2.749"/>
			</g>
			<g id="polygon346_1_">
				<polygon fill="#2A2A29" points="30.661,3.038 31.675,4.052 34.424,4.052 35.438,3.038 				"/>
			</g>
			<g id="polygon348_1_">
				<polygon fill="#484848" points="35.438,3.038 34.424,4.054 34.424,6.802 35.438,7.814 				"/>
			</g>
			<g id="polygon352_1_">
				<polygon fill="#373737" points="30.66,7.814 31.673,6.801 31.673,4.052 30.66,3.038 				"/>
			</g>
			<g id="rect522_1_">
				<rect x="36.606" y="1.87" fill="#414141" width="7.114" height="7.114"/>
			</g>
			<g id="rect524_1_">
				<rect x="38.789" y="4.052" fill="#010101" width="2.747" height="2.749"/>
			</g>
			<g id="polygon526_1_">
				<polygon fill="#2A2A29" points="37.773,3.038 38.789,4.052 41.536,4.052 42.55,3.038 				"/>
			</g>
			<g id="polygon528_1_">
				<polygon fill="#484848" points="42.55,3.038 41.536,4.054 41.536,6.802 42.55,7.814 				"/>
			</g>
			<g id="polygon532_1_">
				<polygon fill="#373737" points="37.772,7.814 38.789,6.801 38.789,4.052 37.772,3.038 				"/>
			</g>
			<g id="rect534_1_">
				<rect x="43.719" y="1.87" fill="#414141" width="7.116" height="7.114"/>
			</g>
			<g id="rect536_1_">
				<rect x="45.901" y="4.052" fill="#010101" width="2.746" height="2.749"/>
			</g>
			<g id="polygon538_1_">
				<polygon fill="#2A2A29" points="44.889,3.038 45.901,4.052 48.65,4.052 49.663,3.038 				"/>
			</g>
			<g id="polygon540_1_">
				<polygon fill="#484848" points="49.663,3.038 48.65,4.054 48.65,6.802 49.663,7.814 				"/>
			</g>
			<g id="polygon544_1_">
				<polygon fill="#373737" points="44.887,7.814 45.899,6.801 45.899,4.052 44.887,3.038 				"/>
			</g>
			<g id="rect546_1_">
				<rect x="50.833" y="1.87" fill="#414141" width="7.113" height="7.114"/>
			</g>
			<g id="rect548_1_">
				<rect x="53.016" y="4.052" fill="#010101" width="2.748" height="2.749"/>
			</g>
			<g id="polygon550_1_">
				<polygon fill="#2A2A29" points="52.003,3.038 53.013,4.052 55.766,4.052 56.778,3.038 				"/>
			</g>
			<g id="polygon552_1_">
				<polygon fill="#484848" points="56.778,3.038 55.766,4.054 55.766,6.802 56.778,7.814 				"/>
			</g>
			<g id="polygon556_1_">
				<polygon fill="#373737" points="52.001,7.814 53.013,6.801 53.013,4.052 52.001,3.038 				"/>
			</g>
			<g id="rect558_1_">
				<rect x="57.945" y="1.87" fill="#414141" width="7.116" height="7.114"/>
			</g>
			<g id="rect560_1_">
				<rect x="60.13" y="4.052" fill="#010101" width="2.748" height="2.749"/>
			</g>
			<g id="polygon562_1_">
				<polygon fill="#2A2A29" points="59.115,3.038 60.128,4.052 62.878,4.052 63.891,3.038 				"/>
			</g>
			<g id="polygon564_1_">
				<polygon fill="#484848" points="63.891,3.038 62.878,4.054 62.878,6.802 63.891,7.814 				"/>
			</g>
			<g id="polygon568_1_">
				<polygon fill="#373737" points="59.113,7.814 60.128,6.801 60.128,4.052 59.113,3.038 				"/>
			</g>
			<g id="rect570_1_">
				<rect x="70.11" y="1.931" fill="#414141" width="7.117" height="7.114"/>
			</g>
			<g id="rect572_1_">
				<rect x="72.296" y="4.112" fill="#010101" width="2.746" height="2.749"/>
			</g>
			<g id="polygon574_1_">
				<polygon fill="#2A2A29" points="71.279,3.099 72.292,4.112 75.042,4.112 76.055,3.099 				"/>
			</g>
			<g id="polygon576_1_">
				<polygon fill="#484848" points="76.055,3.099 75.042,4.114 75.042,6.862 76.055,7.875 				"/>
			</g>
			<g id="polygon580_1_">
				<polygon fill="#373737" points="71.279,7.875 72.292,6.861 72.292,4.112 71.279,3.099 				"/>
			</g>
			<g id="rect582_1_">
				<rect x="77.226" y="1.931" fill="#414141" width="7.111" height="7.114"/>
			</g>
			<g id="rect584_1_">
				<rect x="79.409" y="4.112" fill="#010101" width="2.747" height="2.749"/>
			</g>
			<g id="polygon586_1_">
				<polygon fill="#2A2A29" points="78.393,3.099 79.409,4.112 82.156,4.112 83.169,3.099 				"/>
			</g>
			<g id="polygon588_1_">
				<polygon fill="#484848" points="83.17,3.099 82.156,4.114 82.156,6.862 83.17,7.875 				"/>
			</g>
			<g id="polygon592_1_">
				<polygon fill="#373737" points="78.393,7.875 79.407,6.861 79.407,4.112 78.393,3.099 				"/>
			</g>
			<g id="rect594_1_">
				<rect x="84.337" y="1.931" fill="#414141" width="7.116" height="7.114"/>
			</g>
			<g id="rect596_1_">
				<rect x="86.521" y="4.112" fill="#010101" width="2.748" height="2.749"/>
			</g>
			<g id="polygon598_1_">
				<polygon fill="#2A2A29" points="85.507,3.099 86.521,4.112 89.269,4.112 90.283,3.099 				"/>
			</g>
			<g id="polygon600_1_">
				<polygon fill="#484848" points="90.283,3.099 89.269,4.114 89.269,6.862 90.283,7.875 				"/>
			</g>
			<g id="polygon604_1_">
				<polygon fill="#373737" points="85.506,7.875 86.519,6.861 86.519,4.112 85.506,3.099 				"/>
			</g>
			<g id="rect606_1_">
				<rect x="91.451" y="1.931" fill="#414141" width="7.114" height="7.114"/>
			</g>
			<g id="rect608_1_">
				<rect x="93.635" y="4.112" fill="#010101" width="2.747" height="2.749"/>
			</g>
			<g id="polygon610_1_">
				<polygon fill="#2A2A29" points="92.62,3.099 93.633,4.112 96.383,4.112 97.396,3.099 				"/>
			</g>
			<g id="polygon612_1_">
				<polygon fill="#484848" points="97.396,3.099 96.383,4.114 96.383,6.862 97.396,7.875 				"/>
			</g>
			<g id="polygon616_1_">
				<polygon fill="#373737" points="92.62,7.875 93.633,6.861 93.633,4.112 92.62,3.099 				"/>
			</g>
			<g id="rect618_1_">
				<rect x="98.565" y="1.931" fill="#414141" width="7.115" height="7.114"/>
			</g>
			<g id="rect620_1_">
				<rect x="100.748" y="4.112" fill="#010101" width="2.748" height="2.749"/>
			</g>
			<g id="polygon622_1_">
				<polygon fill="#2A2A29" points="99.733,3.099 100.747,4.112 103.496,4.112 104.509,3.099 				"/>
			</g>
			<g id="polygon624_1_">
				<polygon fill="#484848" points="104.509,3.099 103.496,4.114 103.496,6.862 104.509,7.875 				"/>
			</g>
			<g id="polygon628_1_">
				<polygon fill="#373737" points="99.733,7.875 100.747,6.861 100.747,4.112 99.733,3.099 				"/>
			</g>
			<g id="rect630_1_">
				<rect x="105.679" y="1.931" fill="#414141" width="7.115" height="7.114"/>
			</g>
			<g id="rect632_1_">
				<rect x="107.862" y="4.112" fill="#010101" width="2.745" height="2.749"/>
			</g>
			<g id="polygon634_1_">
				<polygon fill="#2A2A29" points="106.847,3.099 107.862,4.112 110.608,4.112 111.623,3.099 				"/>
			</g>
			<g id="polygon636_1_">
				<polygon fill="#484848" points="111.623,3.099 110.608,4.114 110.608,6.862 111.623,7.875 				"/>
			</g>
			<g id="polygon640_1_">
				<polygon fill="#373737" points="106.845,7.875 107.862,6.861 107.862,4.112 106.845,3.099 				"/>
			</g>
			<g id="rect642_1_">
				<rect x="112.792" y="1.931" fill="#414141" width="7.113" height="7.114"/>
			</g>
			<g id="rect644_1_">
				<rect x="114.976" y="4.112" fill="#010101" width="2.744" height="2.749"/>
			</g>
			<g id="polygon646_1_">
				<polygon fill="#2A2A29" points="113.962,3.099 114.976,4.112 117.722,4.112 118.737,3.099 				"/>
			</g>
			<g id="polygon648_1_">
				<polygon fill="#484848" points="118.739,3.099 117.722,4.114 117.722,6.862 118.739,7.875 				"/>
			</g>
			<g id="polygon652_1_">
				<polygon fill="#373737" points="113.958,7.875 114.974,6.861 114.974,4.112 113.958,3.099 				"/>
			</g>
			<g id="rect654_1_">
				<rect x="119.905" y="1.931" fill="#414141" width="7.115" height="7.114"/>
			</g>
			<g id="rect656_1_">
				<rect x="122.089" y="4.112" fill="#010101" width="2.748" height="2.749"/>
			</g>
			<g id="polygon666_1_">
				<polygon fill="#2A2A29" points="121.075,3.099 122.087,4.112 124.837,4.112 125.851,3.099 				"/>
			</g>
			<g id="polygon668_1_">
				<polygon fill="#484848" points="125.851,3.099 124.837,4.114 124.837,6.862 125.851,7.875 				"/>
			</g>
			<g id="polygon672_1_">
				<polygon fill="#373737" points="121.075,7.875 122.087,6.861 122.087,4.112 121.075,3.099 				"/>
			</g>
			<g id="_x30_.3">
				<g id="_x30_.3.0">
					<polygon fill="#B4B4B4" points="2.212,84.167 2.212,63.327 21.152,63.327 21.152,84.17 					"/>
				</g>
				<g id="_x30_.3.1">
					<rect x="10.473" y="84.39" fill="#676767" width="3.363" height="2.024"/>
				</g>
				<g id="_x30_.3.2">
					<rect x="10.473" y="61.049" fill="#676767" width="3.363" height="2.023"/>
				</g>
				<g id="_x30_.3.3">
					<rect x="21.01" y="63.327" fill="#CDCCCC" width="0.143" height="20.843"/>
				</g>
				<g id="_x30_.3.4">
					<rect x="2.513" y="68.038" fill="#333333" width="18.64" height="11.385"/>
				</g>
				<g id="_x30_.3.5">
					<rect x="2.173" y="61.963" fill="#B4B4B4" width="0.638" height="1.109"/>
				</g>
				<g id="_x30_.3.6">
					<rect x="2.173" y="62.363" fill="#CDCCCC" width="0.638" height="0.715"/>
				</g>
				<g id="_x30_.3.7">
					<rect x="2.173" y="84.388" fill="#B4B4B4" width="0.638" height="1.108"/>
				</g>
				<g id="_x30_.3.8">
					<rect x="2.173" y="84.388" fill="#CDCCCC" width="0.638" height="0.714"/>
				</g>
				<g id="_x30_.3.9">
					<path fill="#CDCCCC" d="M20.526,63.072l0.626,0.253v2.803c0,0-0.124-2.547-0.313-2.637c-0.188-0.091-0.313,0.116-0.313,0.116
						V63.072z"/>
				</g>
				<g id="_x30_.3.10">
					<path fill="#CDCCCC" d="M20.526,84.39l0.626-0.254v-2.802c0,0-0.125,2.547-0.313,2.637c-0.188,0.091-0.313-0.115-0.313-0.115
						V84.39z"/>
				</g>
				<g id="_x30_.3.11">
					<path fill="#E6E6E5" d="M20.526,80.641h-1.18v-1.774h1.809v-0.51h-0.627V69.11h0.627v-0.581h-1.81v-1.775h1.181V63.08H2.344
						v21.313h18.183V80.641z M5.827,68.525h-0.9v-1.762h0.975c0.306-0.471,0.841-0.783,1.445-0.783c0.661,0,1.223,0.242,1.515,0.783
						l0,0h4.954v1.761H8.857c-0.292,0.54-0.854,0.913-1.517,0.913C6.682,69.438,6.119,69.065,5.827,68.525z M5.827,80.566h-0.9
						v-1.761h0.975c0.306-0.472,0.841-0.782,1.445-0.782c0.661,0,1.223,0.24,1.515,0.782l0,0h4.954v1.761H8.857
						c-0.292,0.542-0.854,0.914-1.517,0.914C6.682,81.48,6.119,81.11,5.827,80.566z"/>
				</g>
				<g id="_x30_.3.12">
					<polygon fill="#F3F3F3" points="2.34,63.52 2.34,63.072 20.526,63.072 20.526,64.764 					"/>
				</g>
				<g id="_x30_.3.13">
					<polygon fill="#989898" points="2.34,84.39 14.482,83.763 20.526,83.131 20.526,84.39 					"/>
				</g>
				<g id="_x30_.3.14">
					<rect x="13.671" y="66.764" fill="#CDCCCC" width="0.145" height="1.761"/>
				</g>
				<g id="_x30_.3.15">
					<rect x="13.671" y="78.808" fill="#CDCCCC" width="0.145" height="1.761"/>
				</g>
				<g id="_x30_.3.16">
					<rect x="2.565" y="64.115" fill="#B4B4B4" width="0.73" height="19.234"/>
				</g>
				<g id="_x30_.3.17">
					<rect x="2.34" y="64.115" fill="#CDCCCC" width="0.347" height="19.234"/>
				</g>
			</g>
			<g>
				
					<rect x="69.265" y="81.502" transform="matrix(0.7071 -0.7071 0.7071 0.7071 -41.4707 82.8124)" fill="#58595B" width="19.926" height="19.927"/>
			</g>
			<g>
				<rect x="28.973" y="99.389" fill="#58595B" width="14.5" height="12.75"/>
			</g>
			<rect x="11.374" y="42.261" fill="#39B54A" stroke="#6D6E71" width="3.13" height="6.589"/>
		</g>
		<g id="silkscreen">
			<g>
				<path d="M106.351,110.401v0.98h-6.407v-0.98H106.351z"/>
				<path d="M106.351,103.934v0.893l-4.509,2.957h4.509v0.98h-6.407v-0.896l4.501-2.963h-4.501v-0.971H106.351z"/>
				<path d="M106.351,97.461v0.893l-4.509,2.957h4.509v0.98h-6.407v-0.896l4.501-2.963h-4.501v-0.971H106.351z"/>
				<path d="M103.146,91.437c0.507,0,0.895,0.01,1.162,0.028c0.268,0.02,0.52,0.072,0.755,0.16s0.454,0.229,0.657,0.422
					c0.456,0.461,0.684,1.024,0.684,1.692s-0.227,1.229-0.681,1.683c-0.205,0.2-0.423,0.344-0.655,0.432
					c-0.23,0.088-0.482,0.142-0.754,0.162c-0.27,0.021-0.659,0.031-1.166,0.031c-0.39,0-0.699-0.006-0.928-0.016
					c-0.229-0.011-0.438-0.034-0.628-0.07c-0.19-0.037-0.368-0.097-0.534-0.181c-0.165-0.083-0.327-0.202-0.485-0.358
					c-0.454-0.453-0.682-1.015-0.682-1.683s0.228-1.231,0.681-1.692c0.205-0.195,0.424-0.337,0.657-0.424
					c0.232-0.086,0.483-0.139,0.753-0.158C102.251,91.446,102.639,91.437,103.146,91.437z M103.147,92.408
					c-0.638,0-1.087,0.023-1.347,0.072c-0.261,0.048-0.474,0.15-0.641,0.305c-0.12,0.112-0.216,0.253-0.287,0.425
					c-0.072,0.171-0.107,0.348-0.107,0.529c0,0.185,0.035,0.362,0.107,0.534c0.071,0.171,0.167,0.313,0.287,0.424
					c0.173,0.155,0.388,0.257,0.645,0.306c0.258,0.048,0.705,0.072,1.343,0.072c0.339,0,0.61-0.005,0.813-0.016
					c0.204-0.01,0.382-0.029,0.533-0.06c0.151-0.028,0.271-0.063,0.355-0.105c0.085-0.04,0.18-0.106,0.285-0.197
					c0.122-0.117,0.22-0.26,0.289-0.429c0.07-0.168,0.105-0.345,0.105-0.529c0-0.387-0.132-0.704-0.395-0.954
					c-0.114-0.105-0.245-0.185-0.391-0.239c-0.146-0.054-0.345-0.091-0.597-0.109C103.896,92.417,103.563,92.408,103.147,92.408z"/>
				<path d="M99.943,85.83l6.407,2.122v0.761l-6.407,2.104v-1.011l4.663-1.473l-4.663-1.477V85.83z"/>
				<path d="M106.351,80.257v1.036l-1.287,0.439v2.529l1.287,0.438v1.037l-6.407-2.35v-0.781L106.351,80.257z M104.237,82.005
					l-2.844,0.97l2.844,0.997V82.005z"/>
				<path d="M100.818,75.446v1.762h5.532v0.971h-5.532v1.768h-0.875v-4.5H100.818z"/>
				<path d="M106.351,73.39v0.98h-6.407v-0.98H106.351z"/>
				<path d="M103.146,67.369c0.507,0,0.895,0.01,1.162,0.028c0.268,0.02,0.52,0.072,0.755,0.16s0.454,0.229,0.657,0.422
					c0.456,0.461,0.684,1.024,0.684,1.692s-0.227,1.229-0.681,1.683c-0.205,0.2-0.423,0.344-0.655,0.432
					c-0.23,0.088-0.482,0.142-0.754,0.162c-0.27,0.021-0.659,0.031-1.166,0.031c-0.39,0-0.699-0.006-0.928-0.016
					c-0.229-0.011-0.438-0.034-0.628-0.07c-0.19-0.037-0.368-0.097-0.534-0.181c-0.165-0.083-0.327-0.202-0.485-0.358
					c-0.454-0.453-0.682-1.015-0.682-1.683s0.228-1.231,0.681-1.692c0.205-0.195,0.424-0.337,0.657-0.424
					c0.232-0.086,0.483-0.139,0.753-0.158C102.251,67.379,102.639,67.369,103.146,67.369z M103.147,68.341
					c-0.638,0-1.087,0.023-1.347,0.072c-0.261,0.048-0.474,0.15-0.641,0.305c-0.12,0.112-0.216,0.253-0.287,0.425
					c-0.072,0.171-0.107,0.348-0.107,0.529c0,0.185,0.035,0.362,0.107,0.534c0.071,0.171,0.167,0.313,0.287,0.424
					c0.173,0.155,0.388,0.257,0.645,0.306c0.258,0.048,0.705,0.072,1.343,0.072c0.339,0,0.61-0.005,0.813-0.016
					c0.204-0.01,0.382-0.029,0.533-0.06c0.151-0.028,0.271-0.063,0.355-0.105c0.085-0.04,0.18-0.106,0.285-0.197
					c0.122-0.117,0.22-0.26,0.289-0.429c0.07-0.168,0.105-0.345,0.105-0.529c0-0.387-0.132-0.704-0.395-0.954
					c-0.114-0.105-0.245-0.185-0.391-0.239c-0.146-0.054-0.345-0.091-0.597-0.109C103.896,68.35,103.563,68.341,103.147,68.341z"/>
				<path d="M106.351,61.135v0.893l-4.509,2.957h4.509v0.98h-6.407v-0.896l4.501-2.963h-4.501v-0.971H106.351z"/>
				<path d="M104.54,52.821c0.387,0,0.717,0.081,0.986,0.244c0.271,0.162,0.477,0.391,0.615,0.686
					c0.141,0.295,0.209,0.632,0.209,1.01v2.596h-6.407v-2.499c0-0.387,0.071-0.728,0.213-1.022c0.143-0.295,0.347-0.521,0.611-0.678
					c0.266-0.157,0.575-0.235,0.93-0.235c0.22,0,0.423,0.04,0.608,0.121c0.187,0.08,0.343,0.187,0.47,0.318
					c0.128,0.132,0.221,0.274,0.279,0.427c0.105-0.275,0.286-0.506,0.541-0.69S104.165,52.821,104.54,52.821z M101.734,53.894
					c-0.189,0-0.354,0.043-0.493,0.129c-0.139,0.087-0.244,0.208-0.315,0.365c-0.072,0.156-0.107,0.34-0.107,0.551v1.438h1.832
					v-1.438c0-0.321-0.08-0.576-0.241-0.764C102.249,53.987,102.023,53.894,101.734,53.894z M104.497,53.796
					c-0.197,0-0.367,0.042-0.51,0.123c-0.145,0.083-0.257,0.203-0.339,0.363c-0.082,0.159-0.123,0.348-0.123,0.564v1.529h1.951
					v-1.529c0-0.22-0.042-0.408-0.126-0.566c-0.082-0.158-0.197-0.278-0.344-0.361C104.86,53.838,104.69,53.796,104.497,53.796z"/>
				<path d="M103.146,47.034c0.507,0,0.895,0.01,1.162,0.028c0.268,0.02,0.52,0.072,0.755,0.16s0.454,0.229,0.657,0.422
					c0.456,0.461,0.684,1.024,0.684,1.692s-0.227,1.229-0.681,1.683c-0.205,0.2-0.423,0.344-0.655,0.432
					c-0.23,0.088-0.482,0.142-0.754,0.162c-0.27,0.021-0.659,0.031-1.166,0.031c-0.39,0-0.699-0.006-0.928-0.016
					c-0.229-0.011-0.438-0.034-0.628-0.07c-0.19-0.037-0.368-0.097-0.534-0.181c-0.165-0.083-0.327-0.202-0.485-0.358
					c-0.454-0.453-0.682-1.015-0.682-1.683s0.228-1.231,0.681-1.692c0.205-0.195,0.424-0.337,0.657-0.424
					c0.232-0.086,0.483-0.139,0.753-0.158C102.251,47.044,102.639,47.034,103.146,47.034z M103.147,48.006
					c-0.638,0-1.087,0.023-1.347,0.072c-0.261,0.048-0.474,0.15-0.641,0.305c-0.12,0.112-0.216,0.253-0.287,0.425
					c-0.072,0.171-0.107,0.348-0.107,0.529c0,0.185,0.035,0.362,0.107,0.534c0.071,0.171,0.167,0.313,0.287,0.424
					c0.173,0.155,0.388,0.257,0.645,0.306c0.258,0.048,0.705,0.072,1.343,0.072c0.339,0,0.61-0.005,0.813-0.016
					c0.204-0.01,0.382-0.029,0.533-0.06c0.151-0.028,0.271-0.063,0.355-0.105c0.085-0.04,0.18-0.106,0.285-0.197
					c0.122-0.117,0.22-0.26,0.289-0.429c0.07-0.168,0.105-0.345,0.105-0.529c0-0.387-0.132-0.704-0.395-0.954
					c-0.114-0.105-0.245-0.185-0.391-0.239c-0.146-0.054-0.345-0.091-0.597-0.109C103.896,48.015,103.563,48.006,103.147,48.006z"/>
				<path d="M106.351,40.904v1.036l-1.287,0.439v2.529l1.287,0.438v1.037l-6.407-2.35v-0.781L106.351,40.904z M104.237,42.652
					l-2.844,0.97l2.844,0.997V42.652z"/>
				<path d="M106.351,35.355v1.133l-2.693,1.35v1.213h2.693v0.98h-6.407v-2.49c0-0.393,0.08-0.741,0.24-1.045
					c0.159-0.304,0.381-0.536,0.664-0.699s0.606-0.244,0.97-0.244c0.44,0,0.808,0.118,1.103,0.354
					c0.295,0.236,0.494,0.543,0.601,0.921L106.351,35.355z M101.826,36.523c-0.313,0-0.559,0.1-0.738,0.297
					c-0.18,0.198-0.27,0.463-0.27,0.793v1.438h2.004v-1.438c0-0.327-0.09-0.591-0.268-0.791
					C102.376,36.624,102.134,36.523,101.826,36.523z"/>
				<path d="M103.104,29.604h0.32c0.347,0,0.647,0.014,0.905,0.04s0.512,0.087,0.761,0.183s0.469,0.238,0.659,0.429
					c0.401,0.402,0.602,0.955,0.602,1.658v2.253h-6.407v-2.253c0-0.703,0.201-1.256,0.603-1.658c0.19-0.19,0.404-0.333,0.642-0.429
					s0.479-0.156,0.725-0.183s0.535-0.04,0.866-0.04H103.104z M103.105,30.575c-0.369,0-0.653,0.006-0.854,0.018
					c-0.201,0.012-0.389,0.043-0.564,0.095c-0.176,0.051-0.32,0.128-0.435,0.23c-0.29,0.264-0.435,0.627-0.435,1.09v1.178h4.658
					v-1.178c0-0.466-0.144-0.829-0.431-1.09c-0.166-0.152-0.393-0.247-0.68-0.285S103.659,30.575,103.105,30.575z"/>
			</g>
			<g>
				<path d="M108.993,83.034c0.229,0,0.432,0.052,0.611,0.153c0.18,0.103,0.321,0.249,0.424,0.44
					c0.104,0.191,0.154,0.412,0.154,0.661v0.889h1.539v0.599h-3.915V84.29c0-0.185,0.03-0.356,0.09-0.516
					c0.06-0.16,0.144-0.294,0.25-0.403s0.231-0.193,0.373-0.25C108.662,83.063,108.819,83.034,108.993,83.034z M108.995,83.628
					c-0.203,0-0.363,0.063-0.48,0.189c-0.115,0.126-0.174,0.294-0.174,0.504v0.856h1.303v-0.856c0-0.212-0.058-0.38-0.173-0.505
					C109.355,83.69,109.196,83.628,108.995,83.628z"/>
				<path d="M109.763,79.728c0.311,0,0.547,0.006,0.711,0.018c0.163,0.012,0.317,0.045,0.461,0.099
					c0.145,0.054,0.277,0.14,0.401,0.258c0.278,0.281,0.419,0.626,0.419,1.034s-0.139,0.751-0.416,1.028
					c-0.126,0.121-0.26,0.209-0.4,0.263c-0.143,0.054-0.295,0.087-0.461,0.1s-0.403,0.019-0.713,0.019
					c-0.238,0-0.428-0.003-0.566-0.009c-0.141-0.007-0.268-0.021-0.385-0.043c-0.116-0.022-0.225-0.06-0.326-0.11
					s-0.199-0.124-0.297-0.219c-0.277-0.277-0.416-0.62-0.416-1.028s0.139-0.753,0.416-1.034c0.125-0.12,0.259-0.207,0.401-0.26
					c0.142-0.053,0.296-0.085,0.46-0.097C109.217,79.733,109.454,79.728,109.763,79.728z M109.765,80.321
					c-0.39,0-0.664,0.015-0.823,0.045c-0.159,0.029-0.29,0.092-0.392,0.187c-0.072,0.067-0.131,0.154-0.176,0.259
					c-0.043,0.104-0.064,0.213-0.064,0.324c0,0.112,0.021,0.221,0.064,0.326c0.045,0.104,0.104,0.19,0.176,0.259
					c0.105,0.095,0.236,0.157,0.395,0.187c0.157,0.029,0.431,0.045,0.82,0.045c0.207,0,0.373-0.004,0.497-0.01
					c0.124-0.007,0.233-0.019,0.325-0.036c0.094-0.019,0.166-0.04,0.218-0.064c0.052-0.025,0.11-0.065,0.174-0.121
					c0.075-0.071,0.134-0.159,0.177-0.262c0.043-0.104,0.064-0.211,0.064-0.323c0-0.236-0.08-0.431-0.241-0.583
					c-0.069-0.064-0.149-0.113-0.238-0.146s-0.211-0.056-0.364-0.067C110.222,80.327,110.019,80.321,109.765,80.321z"/>
				<path d="M107.807,74.719l3.915,1.024v0.516l-2.744,0.798l2.744,0.793v0.519l-3.915,1.021v-0.627l2.798-0.683l-2.798-0.787
					v-0.479l2.798-0.787l-2.798-0.683V74.719z"/>
				<path d="M111.722,71.731v2.506h-3.915v-2.506h0.534v1.907h1.142v-1.628h0.528v1.628h1.178v-1.907H111.722z"/>
				<path d="M111.722,68.151v0.693l-1.646,0.824v0.741h1.646v0.599h-3.915v-1.521c0-0.24,0.049-0.453,0.146-0.639
					c0.098-0.185,0.233-0.327,0.405-0.427c0.174-0.1,0.371-0.149,0.594-0.149c0.269,0,0.493,0.072,0.674,0.216
					c0.18,0.145,0.302,0.332,0.366,0.563L111.722,68.151z M108.958,68.866c-0.191,0-0.342,0.061-0.452,0.181
					c-0.11,0.121-0.165,0.283-0.165,0.485v0.878h1.225v-0.878c0-0.201-0.055-0.362-0.163-0.483
					C109.294,68.927,109.146,68.866,108.958,68.866z"/>
				<path d="M111.722,64.99v2.506h-3.915V64.99h0.534v1.907h1.142V65.27h0.528v1.628h1.178V64.99H111.722z"/>
				<path d="M109.737,61.48h0.196c0.212,0,0.396,0.008,0.554,0.024c0.157,0.016,0.313,0.053,0.465,0.111
					c0.151,0.058,0.285,0.146,0.402,0.262c0.245,0.246,0.367,0.583,0.367,1.014v1.376h-3.915v-1.376
					c0-0.431,0.122-0.768,0.368-1.014c0.116-0.116,0.246-0.204,0.393-0.262c0.145-0.059,0.292-0.096,0.442-0.111
					c0.15-0.017,0.327-0.024,0.528-0.024H109.737z M109.739,62.074c-0.226,0-0.4,0.003-0.521,0.01
					c-0.123,0.008-0.238,0.027-0.346,0.059s-0.195,0.078-0.266,0.141c-0.177,0.161-0.266,0.383-0.266,0.666v0.72h2.848v-0.72
					c0-0.285-0.088-0.507-0.264-0.666c-0.102-0.093-0.24-0.151-0.416-0.175S110.077,62.074,109.739,62.074z"/>
				<path d="M110.616,56.688c0.236,0,0.438,0.05,0.603,0.149s0.291,0.239,0.376,0.419c0.085,0.181,0.127,0.386,0.127,0.617v1.586
					h-3.915v-1.526c0-0.237,0.044-0.445,0.13-0.625c0.088-0.181,0.211-0.318,0.373-0.414s0.352-0.144,0.568-0.144
					c0.135,0,0.258,0.024,0.372,0.073c0.114,0.05,0.21,0.114,0.288,0.194c0.077,0.081,0.135,0.168,0.17,0.261
					c0.064-0.168,0.174-0.309,0.33-0.421C110.194,56.744,110.387,56.688,110.616,56.688z M108.901,57.343
					c-0.116,0-0.217,0.026-0.302,0.079s-0.149,0.128-0.192,0.224c-0.045,0.096-0.066,0.208-0.066,0.337v0.878h1.12v-0.878
					c0-0.197-0.05-0.353-0.147-0.468C109.216,57.4,109.077,57.343,108.901,57.343z M110.589,57.284c-0.12,0-0.224,0.024-0.312,0.075
					c-0.088,0.05-0.157,0.124-0.206,0.222c-0.051,0.098-0.076,0.212-0.076,0.345v0.935h1.193v-0.935c0-0.135-0.026-0.25-0.077-0.347
					c-0.052-0.097-0.122-0.17-0.211-0.22C110.812,57.309,110.707,57.284,110.589,57.284z"/>
				<path d="M107.807,53.443l2.304,1.171h1.611v0.599h-1.611l-2.304,1.168v-0.648l1.722-0.818l-1.722-0.82V53.443z"/>
				<path d="M111.722,48.876v0.633l-0.787,0.269v1.546l0.787,0.269v0.633l-3.915-1.436v-0.478L111.722,48.876z M110.431,49.944
					l-1.738,0.593l1.738,0.609V49.944z"/>
				<path d="M111.722,45.556v0.693l-1.646,0.824v0.741h1.646v0.599h-3.915v-1.521c0-0.24,0.049-0.453,0.146-0.639
					c0.098-0.185,0.233-0.327,0.405-0.427c0.174-0.1,0.371-0.149,0.594-0.149c0.269,0,0.493,0.072,0.674,0.216
					c0.18,0.145,0.302,0.332,0.366,0.563L111.722,45.556z M108.958,46.271c-0.191,0-0.342,0.061-0.452,0.181
					c-0.11,0.121-0.165,0.283-0.165,0.485v0.878h1.225v-0.878c0-0.201-0.055-0.362-0.163-0.483
					C109.294,46.331,109.146,46.271,108.958,46.271z"/>
				<path d="M109.737,42.112h0.196c0.212,0,0.396,0.008,0.554,0.024c0.157,0.016,0.313,0.053,0.465,0.111
					c0.151,0.058,0.285,0.146,0.402,0.262c0.245,0.246,0.367,0.583,0.367,1.014v1.376h-3.915v-1.376
					c0-0.431,0.122-0.768,0.368-1.014c0.116-0.116,0.246-0.204,0.393-0.262c0.145-0.059,0.292-0.096,0.442-0.111
					c0.15-0.017,0.327-0.024,0.528-0.024H109.737z M109.739,42.706c-0.226,0-0.4,0.003-0.521,0.01
					c-0.123,0.008-0.238,0.027-0.346,0.059s-0.195,0.078-0.266,0.141c-0.177,0.161-0.266,0.383-0.266,0.666v0.72h2.848v-0.72
					c0-0.285-0.088-0.507-0.264-0.666c-0.102-0.093-0.24-0.151-0.416-0.175S110.077,42.706,109.739,42.706z"/>
				<path d="M110.401,38.573c0.265,0,0.5,0.061,0.705,0.182c0.207,0.122,0.365,0.29,0.479,0.504s0.17,0.454,0.17,0.721
					c0,0.266-0.057,0.505-0.17,0.718s-0.271,0.38-0.479,0.502c-0.205,0.122-0.44,0.183-0.705,0.183h-2.595v-0.594h2.565
					c0.172,0,0.322-0.033,0.449-0.1c0.128-0.065,0.227-0.16,0.295-0.281c0.069-0.122,0.104-0.265,0.104-0.428
					c0-0.162-0.034-0.306-0.104-0.428c-0.068-0.123-0.166-0.218-0.293-0.285c-0.127-0.066-0.277-0.101-0.451-0.101h-2.565v-0.593
					H110.401z"/>
				<path d="M111.722,37.104v0.599h-3.915v-0.599H111.722z"/>
				<path d="M111.722,33.222v0.545l-2.755,1.808h2.755v0.599h-3.915v-0.548l2.75-1.81h-2.75v-0.594H111.722z"/>
				<path d="M109.763,29.611c0.311,0,0.547,0.006,0.711,0.018c0.163,0.012,0.317,0.045,0.461,0.099
					c0.145,0.054,0.277,0.14,0.401,0.258c0.278,0.281,0.419,0.626,0.419,1.034s-0.139,0.751-0.416,1.028
					c-0.126,0.121-0.26,0.209-0.4,0.263c-0.143,0.054-0.295,0.087-0.461,0.1s-0.403,0.019-0.713,0.019
					c-0.238,0-0.428-0.003-0.566-0.009c-0.141-0.007-0.268-0.021-0.385-0.043c-0.116-0.022-0.225-0.06-0.326-0.11
					s-0.199-0.124-0.297-0.219c-0.277-0.277-0.416-0.62-0.416-1.028s0.139-0.753,0.416-1.034c0.125-0.12,0.259-0.207,0.401-0.26
					c0.142-0.053,0.296-0.085,0.46-0.097C109.217,29.617,109.454,29.611,109.763,29.611z M109.765,30.205
					c-0.39,0-0.664,0.015-0.823,0.045c-0.159,0.029-0.29,0.092-0.392,0.187c-0.072,0.067-0.131,0.154-0.176,0.259
					c-0.043,0.104-0.064,0.213-0.064,0.324c0,0.112,0.021,0.221,0.064,0.326c0.045,0.104,0.104,0.19,0.176,0.259
					c0.105,0.095,0.236,0.157,0.395,0.187c0.157,0.029,0.431,0.045,0.82,0.045c0.207,0,0.373-0.004,0.497-0.01
					c0.124-0.007,0.233-0.019,0.325-0.036c0.094-0.019,0.166-0.04,0.218-0.064c0.052-0.025,0.11-0.065,0.174-0.121
					c0.075-0.071,0.134-0.159,0.177-0.262c0.043-0.104,0.064-0.211,0.064-0.323c0-0.236-0.08-0.431-0.241-0.583
					c-0.069-0.064-0.149-0.113-0.238-0.146s-0.211-0.056-0.364-0.067C110.222,30.211,110.019,30.205,109.765,30.205z"/>
			</g>
			<g>
				<path d="M125.909,56.641v0.562h-3.307l0.672,0.765h-0.621l-0.66-0.765v-0.562H125.909z"/>
			</g>
			<g>
				<path d="M125.294,23.693v0.693l-1.646,0.824v0.741h1.646v0.599h-3.916v-1.521c0-0.24,0.049-0.453,0.146-0.639
					c0.098-0.185,0.232-0.327,0.406-0.427s0.371-0.149,0.592-0.149c0.27,0,0.494,0.072,0.674,0.216
					c0.182,0.145,0.303,0.332,0.367,0.563L125.294,23.693z M122.528,24.408c-0.191,0-0.342,0.061-0.451,0.181
					c-0.109,0.121-0.164,0.283-0.164,0.485v0.878h1.225v-0.878c0-0.201-0.055-0.362-0.164-0.483
					C122.864,24.469,122.716,24.408,122.528,24.408z"/>
				<path d="M125.294,20.422v0.688l-1.502,0.852l1.502,0.848v0.683l-2.01-1.211l-1.906,1.133v-0.682l1.402-0.771l-1.402-0.776
					v-0.683l1.906,1.134L125.294,20.422z"/>
				<path d="M124.034,15.096v4.095l1.885-1.899v0.723l-2.148,2.157l-2.156-2.157v-0.723l1.885,1.899v-4.095H124.034z"/>
			</g>
			<g>
				<path d="M114.611,24.323V25.4h3.38v0.594h-3.38v1.079h-0.534v-2.75H114.611z"/>
				<path d="M117.991,21.122v0.688l-1.5,0.852l1.5,0.848v0.683l-2.008-1.211l-1.906,1.133v-0.682l1.401-0.771l-1.401-0.776v-0.683
					l1.906,1.134L117.991,21.122z"/>
				<path d="M116.47,15.79l2.148,2.155v0.72l-1.887-1.896v4.097h-0.533V16.77l-1.885,1.896v-0.72L116.47,15.79z"/>
			</g>
			<g>
				<path d="M125.106,123.269c0.174,0,0.332,0.033,0.477,0.102s0.268,0.166,0.367,0.293c0.102,0.129,0.178,0.277,0.229,0.447
					s0.076,0.359,0.076,0.564c0,0.299-0.039,0.559-0.119,0.779c-0.08,0.223-0.213,0.424-0.398,0.609l-0.393-0.398
					c0.09-0.088,0.164-0.184,0.221-0.287c0.057-0.105,0.098-0.217,0.121-0.336c0.023-0.117,0.035-0.244,0.035-0.377
					c0-0.254-0.053-0.451-0.158-0.594c-0.105-0.145-0.254-0.215-0.443-0.215c-0.176,0-0.311,0.051-0.404,0.154
					c-0.047,0.047-0.082,0.102-0.105,0.164c-0.023,0.061-0.045,0.148-0.061,0.264l-0.064,0.463c-0.045,0.318-0.15,0.566-0.314,0.742
					c-0.178,0.191-0.426,0.285-0.746,0.285c-0.227,0-0.428-0.053-0.602-0.158s-0.309-0.258-0.404-0.453
					c-0.096-0.197-0.143-0.43-0.143-0.695c0-0.264,0.035-0.492,0.105-0.684c0.072-0.191,0.184-0.369,0.34-0.533l0.375,0.381
					c-0.076,0.078-0.137,0.162-0.18,0.252c-0.045,0.09-0.076,0.184-0.096,0.279c-0.018,0.098-0.027,0.203-0.027,0.32
					c0,0.148,0.025,0.275,0.078,0.383c0.051,0.107,0.123,0.189,0.215,0.246s0.197,0.086,0.316,0.086
					c0.154,0,0.275-0.051,0.363-0.148c0.041-0.049,0.078-0.111,0.111-0.191c0.033-0.078,0.057-0.162,0.068-0.25l0.066-0.445
					c0.027-0.18,0.064-0.324,0.109-0.439c0.045-0.113,0.105-0.211,0.182-0.291C124.489,123.374,124.757,123.269,125.106,123.269z"/>
				<path d="M125.052,119.897c0.193,0.031,0.365,0.09,0.518,0.172c0.15,0.084,0.277,0.186,0.379,0.307s0.178,0.26,0.229,0.416
					c0.053,0.156,0.078,0.324,0.078,0.502c0,0.135-0.016,0.264-0.047,0.385s-0.078,0.236-0.143,0.348s-0.141,0.209-0.227,0.295
					c-0.125,0.121-0.258,0.209-0.4,0.264c-0.141,0.053-0.295,0.086-0.459,0.1c-0.166,0.012-0.404,0.018-0.715,0.018
					c-0.236,0-0.426-0.002-0.566-0.008c-0.139-0.008-0.268-0.021-0.383-0.043c-0.117-0.023-0.227-0.061-0.326-0.111
					c-0.102-0.051-0.201-0.123-0.297-0.219c-0.137-0.137-0.24-0.291-0.311-0.465s-0.105-0.361-0.105-0.563
					c0-0.367,0.104-0.676,0.311-0.924c0.209-0.248,0.506-0.406,0.893-0.473v0.605c-0.205,0.047-0.367,0.139-0.488,0.273
					s-0.182,0.307-0.182,0.518c0,0.113,0.021,0.221,0.063,0.322s0.1,0.188,0.174,0.258c0.057,0.051,0.115,0.092,0.174,0.119
					c0.057,0.029,0.135,0.053,0.23,0.07s0.203,0.029,0.322,0.037c0.119,0.006,0.283,0.01,0.492,0.01s0.371-0.004,0.49-0.01
					c0.119-0.008,0.227-0.02,0.322-0.037c0.098-0.018,0.174-0.041,0.23-0.07c0.057-0.027,0.115-0.068,0.178-0.119
					c0.072-0.07,0.131-0.156,0.174-0.258c0.041-0.102,0.063-0.209,0.063-0.322c0-0.143-0.027-0.268-0.084-0.375
					c-0.055-0.107-0.133-0.195-0.236-0.268c-0.102-0.072-0.219-0.123-0.35-0.152V119.897z"/>
				<path d="M126.224,116.714v2.484h-3.916v-0.6h3.381v-1.885H126.224z"/>
			</g>
			<g>
				<path d="M126.569,133.265v0.863l-1.072,0.365v2.107l1.072,0.367v0.863l-5.338-1.957v-0.652L126.569,133.265z M124.808,134.72
					l-2.369,0.809l2.369,0.832V134.72z"/>
				<path d="M124.786,129.733c0.322,0,0.596,0.031,0.816,0.092c0.223,0.061,0.424,0.18,0.602,0.357
					c0.277,0.279,0.418,0.654,0.418,1.125c0,0.242-0.039,0.461-0.115,0.658c-0.078,0.195-0.176,0.355-0.295,0.48
					c-0.133,0.133-0.281,0.229-0.447,0.289c-0.166,0.063-0.357,0.102-0.576,0.117v-0.766c0.24-0.029,0.424-0.107,0.553-0.236
					c0.127-0.131,0.191-0.311,0.191-0.543c0-0.229-0.07-0.414-0.209-0.553c-0.104-0.105-0.232-0.174-0.387-0.207
					c-0.152-0.033-0.336-0.049-0.551-0.049c-0.355,0-0.631,0.059-0.828,0.176c-0.193,0.117-0.293,0.318-0.293,0.604
					c0,0.205,0.045,0.371,0.135,0.498s0.205,0.215,0.346,0.26v0.695h-2.914v-2.877h0.68v2.189h1.41
					c-0.205-0.197-0.307-0.492-0.307-0.887c0-0.41,0.115-0.729,0.344-0.959c0.182-0.184,0.389-0.307,0.623-0.369
					C124.216,129.765,124.483,129.733,124.786,129.733z"/>
			</g>
			<g>
				<path d="M125.083,11.129c0.311,0,0.58,0.068,0.811,0.205c0.232,0.137,0.408,0.322,0.533,0.559
					c0.125,0.235,0.188,0.496,0.188,0.781c0,0.286-0.063,0.546-0.188,0.78s-0.303,0.419-0.535,0.555
					c-0.23,0.136-0.5,0.203-0.809,0.203h-2.369c-0.232,0-0.443-0.039-0.631-0.117c-0.189-0.078-0.352-0.188-0.488-0.331
					c-0.135-0.143-0.236-0.308-0.305-0.494c-0.068-0.188-0.104-0.386-0.104-0.596s0.035-0.409,0.105-0.599
					c0.068-0.189,0.17-0.354,0.303-0.494s0.295-0.251,0.486-0.331c0.189-0.081,0.4-0.121,0.633-0.121H125.083z M125.062,11.895
					h-2.326c-0.168,0-0.318,0.03-0.449,0.093c-0.133,0.063-0.234,0.154-0.309,0.274c-0.072,0.121-0.109,0.259-0.109,0.412
					c0,0.156,0.037,0.294,0.109,0.412c0.074,0.118,0.176,0.208,0.309,0.27c0.131,0.061,0.281,0.092,0.449,0.092h2.326
					c0.262,0,0.471-0.069,0.631-0.207c0.16-0.139,0.24-0.327,0.24-0.566c0-0.241-0.08-0.432-0.24-0.571
					C125.532,11.964,125.323,11.895,125.062,11.895z"/>
			</g>
			<g>
				<path d="M119.345,11.108v0.766h-4.507l0.915,1.043h-0.846l-0.901-1.043v-0.766H119.345z"/>
			</g>
			<g>
				<path d="M112.003,11.192v3.105h-0.682l-2.498-2.055c-0.234-0.189-0.473-0.285-0.713-0.285c-0.154,0-0.295,0.029-0.42,0.092
					c-0.126,0.061-0.223,0.15-0.289,0.27c-0.067,0.121-0.102,0.26-0.102,0.418c0,0.225,0.068,0.412,0.201,0.563
					c0.135,0.15,0.343,0.225,0.623,0.225v0.766c-0.222,0-0.427-0.039-0.615-0.115c-0.188-0.076-0.348-0.186-0.479-0.324
					s-0.233-0.303-0.304-0.49s-0.106-0.396-0.106-0.623c0-0.305,0.062-0.574,0.183-0.807c0.123-0.234,0.297-0.414,0.523-0.545
					c0.229-0.129,0.492-0.193,0.791-0.193c0.221,0,0.412,0.037,0.574,0.113s0.357,0.205,0.584,0.389l2.047,1.674v-2.176H112.003z"/>
			</g>
			<g>
				<path d="M102.495,14.976c0.224,0.223,0.377,0.414,0.461,0.574c0.083,0.162,0.125,0.34,0.125,0.535
					c0,0.127-0.021,0.256-0.061,0.383c-0.041,0.129-0.103,0.281-0.186,0.457c-0.122,0.234-0.183,0.432-0.183,0.592
					c0,0.113,0.021,0.213,0.062,0.299c0.04,0.088,0.131,0.199,0.271,0.34l-0.482,0.479c-0.145-0.143-0.26-0.273-0.347-0.391
					s-0.148-0.232-0.185-0.342c-0.037-0.109-0.055-0.232-0.055-0.369c0-0.143,0.021-0.277,0.063-0.404
					c0.043-0.129,0.104-0.271,0.182-0.428c0.024-0.051,0.046-0.098,0.065-0.141s0.041-0.098,0.063-0.164
					c0.022-0.068,0.037-0.119,0.044-0.154c0.008-0.035,0.011-0.082,0.011-0.141c0-0.115-0.021-0.217-0.063-0.305
					c-0.043-0.088-0.133-0.199-0.27-0.334L102.495,14.976z"/>
				<path d="M103.093,11.185c0.33,0,0.611,0.072,0.846,0.219c0.234,0.145,0.41,0.342,0.529,0.592
					c0.118,0.248,0.178,0.523,0.178,0.826c0,0.463-0.127,0.846-0.379,1.152s-0.625,0.467-1.118,0.482V13.69
					c0.269-0.016,0.47-0.105,0.605-0.27c0.136-0.166,0.202-0.365,0.202-0.6c0-0.256-0.078-0.465-0.235-0.627
					s-0.373-0.244-0.648-0.244c-0.273,0-0.487,0.076-0.642,0.227c-0.155,0.152-0.232,0.375-0.232,0.668v0.123h-0.674v-0.123
					c0-0.273-0.07-0.479-0.212-0.613c-0.141-0.133-0.34-0.201-0.596-0.201c-0.261,0-0.463,0.074-0.606,0.223
					c-0.144,0.146-0.215,0.338-0.215,0.568s0.067,0.416,0.202,0.557c0.136,0.143,0.322,0.225,0.561,0.246v0.766
					c-0.231-0.016-0.437-0.063-0.613-0.145c-0.178-0.082-0.329-0.193-0.455-0.334s-0.223-0.303-0.29-0.488s-0.101-0.387-0.101-0.602
					c0-0.303,0.063-0.572,0.19-0.807c0.127-0.236,0.304-0.42,0.529-0.549c0.227-0.131,0.484-0.197,0.775-0.197
					c0.542,0,0.922,0.223,1.14,0.668c0.107-0.24,0.265-0.426,0.472-0.557C102.514,11.251,102.775,11.185,103.093,11.185z"/>
			</g>
			<g>
				<path d="M96.678,11.234v0.571h0.802v0.743h-0.802v2.157h-0.715l-3.823-1.882v-0.823l3.823,1.874v-1.326h-1.245v-0.743h1.245
					v-0.571H96.678z"/>
			</g>
			<g>
				<path d="M88.167,14.976c0.224,0.223,0.377,0.414,0.461,0.574c0.083,0.162,0.125,0.34,0.125,0.535
					c0,0.127-0.021,0.256-0.061,0.383c-0.041,0.129-0.103,0.281-0.186,0.457c-0.122,0.234-0.183,0.432-0.183,0.592
					c0,0.113,0.021,0.213,0.062,0.299c0.04,0.088,0.131,0.199,0.271,0.34l-0.482,0.479c-0.145-0.143-0.26-0.273-0.347-0.391
					s-0.148-0.232-0.185-0.342c-0.037-0.109-0.055-0.232-0.055-0.369c0-0.143,0.021-0.277,0.063-0.404
					c0.043-0.129,0.104-0.271,0.182-0.428c0.024-0.051,0.046-0.098,0.065-0.141s0.041-0.098,0.063-0.164
					c0.022-0.068,0.037-0.119,0.044-0.154c0.008-0.035,0.011-0.082,0.011-0.141c0-0.115-0.021-0.217-0.063-0.305
					c-0.043-0.088-0.133-0.199-0.27-0.334L88.167,14.976z"/>
				<path d="M88.482,11.177c0.322,0,0.594,0.031,0.816,0.092c0.222,0.063,0.422,0.182,0.601,0.359
					c0.278,0.279,0.417,0.652,0.417,1.125c0,0.24-0.038,0.461-0.115,0.656c-0.077,0.197-0.175,0.357-0.295,0.482
					c-0.132,0.131-0.28,0.229-0.446,0.289s-0.357,0.1-0.575,0.117v-0.766c0.239-0.029,0.423-0.109,0.551-0.238
					c0.129-0.129,0.192-0.311,0.192-0.541s-0.069-0.414-0.208-0.553c-0.105-0.105-0.234-0.176-0.387-0.207
					c-0.152-0.033-0.336-0.051-0.551-0.051c-0.356,0-0.633,0.059-0.828,0.176s-0.293,0.318-0.293,0.605
					c0,0.205,0.045,0.371,0.134,0.498s0.204,0.213,0.346,0.26v0.695h-2.915v-2.879h0.682v2.191h1.41
					c-0.205-0.199-0.308-0.494-0.308-0.887c0-0.41,0.114-0.73,0.344-0.959c0.181-0.184,0.389-0.307,0.623-0.371
					C87.911,11.21,88.18,11.177,88.482,11.177z"/>
			</g>
			<g>
				<path d="M80.88,14.976c0.224,0.223,0.377,0.414,0.461,0.574c0.083,0.162,0.125,0.34,0.125,0.535
					c0,0.127-0.021,0.256-0.061,0.383c-0.041,0.129-0.103,0.281-0.186,0.457c-0.122,0.234-0.183,0.432-0.183,0.592
					c0,0.113,0.021,0.213,0.062,0.299c0.04,0.088,0.131,0.199,0.271,0.34l-0.482,0.479c-0.145-0.143-0.26-0.273-0.347-0.391
					s-0.148-0.232-0.185-0.342c-0.037-0.109-0.055-0.232-0.055-0.369c0-0.143,0.021-0.277,0.063-0.404
					c0.043-0.129,0.104-0.271,0.182-0.428c0.024-0.051,0.046-0.098,0.065-0.141s0.041-0.098,0.063-0.164
					c0.022-0.068,0.037-0.119,0.044-0.154c0.008-0.035,0.011-0.082,0.011-0.141c0-0.115-0.021-0.217-0.063-0.305
					c-0.043-0.088-0.133-0.199-0.27-0.334L80.88,14.976z"/>
				<path d="M81.396,11.192c0.319,0,0.604,0.066,0.852,0.199c0.247,0.133,0.438,0.32,0.573,0.559
					c0.134,0.24,0.201,0.512,0.201,0.816c0,0.309-0.064,0.582-0.194,0.822c-0.129,0.24-0.314,0.428-0.557,0.561
					c-0.241,0.133-0.523,0.199-0.846,0.199c-0.137,0-0.277-0.016-0.421-0.049c-0.145-0.033-0.288-0.078-0.433-0.137
					c-0.144-0.059-0.297-0.129-0.458-0.209l-2.476-1.217v-0.816l2.297,1.146c-0.057-0.129-0.085-0.287-0.085-0.473
					c0-0.258,0.064-0.494,0.192-0.707s0.311-0.381,0.546-0.508C80.824,11.255,81.094,11.192,81.396,11.192z M81.411,11.958
					c-0.269,0-0.489,0.074-0.663,0.221c-0.173,0.148-0.26,0.346-0.26,0.596c0,0.246,0.083,0.443,0.249,0.59s0.391,0.219,0.674,0.219
					c0.186,0,0.349-0.033,0.49-0.102s0.251-0.164,0.326-0.287c0.076-0.125,0.113-0.264,0.113-0.42c0-0.24-0.085-0.436-0.254-0.588
					C81.917,12.034,81.691,11.958,81.411,11.958z"/>
			</g>
			<g>
				<path d="M71.204,11.118l4.658,1.785v0.822l-4.658-1.789v1.625h0.843v0.736h-1.523v-3.18H71.204z"/>
			</g>
			<g>
				<path d="M62.935,11.126c0.313,0,0.587,0.072,0.823,0.219c0.237,0.145,0.418,0.342,0.542,0.594
					c0.125,0.252,0.187,0.529,0.187,0.834c0,0.301-0.062,0.576-0.187,0.828c-0.124,0.252-0.305,0.451-0.542,0.596
					c-0.236,0.146-0.511,0.219-0.823,0.219c-0.29,0-0.539-0.068-0.746-0.207c-0.208-0.137-0.376-0.313-0.505-0.525
					c-0.076,0.121-0.167,0.23-0.273,0.326s-0.232,0.172-0.379,0.229c-0.147,0.059-0.312,0.086-0.495,0.086
					c-0.218,0-0.418-0.039-0.601-0.117c-0.184-0.078-0.341-0.188-0.473-0.33c-0.133-0.143-0.232-0.309-0.301-0.496
					s-0.103-0.391-0.103-0.607s0.034-0.42,0.103-0.607s0.168-0.354,0.299-0.498c0.13-0.143,0.288-0.254,0.473-0.334
					s0.385-0.119,0.603-0.119c0.267,0,0.494,0.059,0.684,0.178s0.344,0.273,0.464,0.467c0.131-0.215,0.299-0.391,0.501-0.527
					S62.637,11.126,62.935,11.126z M62.921,11.899c-0.246,0-0.455,0.084-0.629,0.252c-0.173,0.168-0.259,0.377-0.259,0.623
					c0,0.244,0.086,0.451,0.259,0.621c0.174,0.172,0.383,0.258,0.629,0.258c0.161,0,0.31-0.039,0.446-0.117
					c0.136-0.078,0.243-0.186,0.321-0.322s0.117-0.283,0.117-0.439c0-0.244-0.086-0.451-0.258-0.621S63.167,11.899,62.921,11.899z
					 M60.557,11.979c-0.234,0-0.429,0.074-0.584,0.223c-0.154,0.15-0.232,0.34-0.232,0.572c0,0.229,0.078,0.418,0.232,0.566
					c0.155,0.146,0.35,0.221,0.584,0.221c0.237,0,0.432-0.072,0.583-0.219s0.227-0.336,0.227-0.568c0-0.234-0.075-0.426-0.225-0.574
					C60.991,12.054,60.797,11.979,60.557,11.979z"/>
			</g>
			<g>
				<path d="M55.244,14.976c0.224,0.223,0.378,0.414,0.461,0.574c0.084,0.162,0.125,0.34,0.125,0.535
					c0,0.127-0.02,0.256-0.061,0.383c-0.04,0.129-0.103,0.281-0.186,0.457c-0.121,0.234-0.182,0.432-0.182,0.592
					c0,0.113,0.021,0.213,0.061,0.299c0.041,0.088,0.132,0.199,0.272,0.34l-0.483,0.479c-0.144-0.143-0.26-0.273-0.346-0.391
					c-0.087-0.117-0.148-0.232-0.186-0.342c-0.036-0.109-0.055-0.232-0.055-0.369c0-0.143,0.021-0.277,0.064-0.404
					c0.042-0.129,0.103-0.271,0.181-0.428c0.024-0.051,0.047-0.098,0.066-0.141s0.04-0.098,0.062-0.164
					c0.022-0.068,0.037-0.119,0.044-0.154c0.008-0.035,0.012-0.082,0.012-0.141c0-0.115-0.021-0.217-0.064-0.305
					s-0.132-0.199-0.27-0.334L55.244,14.976z"/>
				<path d="M53.557,11.192c0.207,0,0.411,0.033,0.611,0.1c0.2,0.068,0.434,0.168,0.699,0.299l2.476,1.213v0.82l-2.296-1.15
					c0.057,0.129,0.084,0.289,0.084,0.48c0,0.258-0.063,0.494-0.192,0.707c-0.128,0.211-0.31,0.379-0.545,0.502
					c-0.236,0.125-0.505,0.186-0.808,0.186c-0.32,0-0.604-0.066-0.852-0.199s-0.438-0.318-0.573-0.559
					c-0.134-0.238-0.201-0.512-0.201-0.816s0.063-0.578,0.192-0.818c0.128-0.24,0.313-0.428,0.557-0.563
					C52.951,11.259,53.234,11.192,53.557,11.192z M53.571,11.958c-0.186,0-0.35,0.033-0.491,0.102s-0.25,0.166-0.326,0.289
					c-0.075,0.125-0.113,0.268-0.113,0.426c0,0.244,0.085,0.439,0.255,0.588c0.17,0.146,0.395,0.221,0.676,0.221
					c0.264,0,0.483-0.072,0.659-0.217c0.176-0.146,0.264-0.344,0.264-0.592c0-0.242-0.083-0.438-0.247-0.59
					C54.082,12.034,53.856,11.958,53.571,11.958z"/>
			</g>
			<g>
				<path d="M47.764,18.854c0.224,0.223,0.377,0.414,0.461,0.574c0.083,0.162,0.125,0.34,0.125,0.535
					c0,0.127-0.021,0.256-0.061,0.383c-0.041,0.129-0.103,0.281-0.186,0.457c-0.122,0.234-0.183,0.432-0.183,0.592
					c0,0.113,0.021,0.213,0.062,0.299c0.04,0.088,0.131,0.199,0.271,0.34l-0.482,0.479c-0.145-0.143-0.26-0.273-0.347-0.391
					s-0.148-0.232-0.185-0.342c-0.037-0.109-0.055-0.232-0.055-0.369c0-0.143,0.021-0.277,0.063-0.404
					c0.043-0.129,0.104-0.271,0.182-0.428c0.024-0.051,0.046-0.098,0.065-0.141s0.041-0.098,0.063-0.164
					c0.022-0.068,0.037-0.119,0.044-0.154c0.008-0.035,0.011-0.082,0.011-0.141c0-0.115-0.021-0.217-0.063-0.305
					c-0.043-0.088-0.133-0.199-0.27-0.334L47.764,18.854z"/>
				<path d="M49.862,15.987v0.766h-4.508l0.915,1.043h-0.846l-0.901-1.043v-0.766H49.862z"/>
				<path d="M48.375,11.229c0.311,0,0.581,0.068,0.812,0.205s0.408,0.322,0.533,0.559c0.124,0.234,0.187,0.496,0.187,0.781
					s-0.063,0.545-0.187,0.779c-0.125,0.234-0.303,0.42-0.535,0.555c-0.231,0.137-0.502,0.203-0.81,0.203h-2.369
					c-0.231,0-0.442-0.039-0.632-0.117s-0.352-0.188-0.487-0.33c-0.135-0.143-0.237-0.309-0.306-0.494
					c-0.068-0.188-0.103-0.387-0.103-0.596c0-0.211,0.035-0.41,0.104-0.6s0.171-0.354,0.304-0.494
					c0.134-0.141,0.295-0.25,0.485-0.33c0.19-0.082,0.402-0.121,0.634-0.121H48.375z M48.354,11.995h-2.325
					c-0.169,0-0.319,0.029-0.451,0.092s-0.234,0.154-0.308,0.275s-0.109,0.258-0.109,0.412c0,0.156,0.036,0.293,0.109,0.412
					c0.073,0.117,0.176,0.207,0.308,0.27c0.132,0.061,0.282,0.092,0.451,0.092h2.325c0.261,0,0.472-0.07,0.632-0.207
					c0.159-0.139,0.239-0.328,0.239-0.566c0-0.242-0.08-0.432-0.239-0.572C48.825,12.063,48.614,11.995,48.354,11.995z"/>
			</g>
			<g>
				<path d="M40.263,17.854c0.224,0.223,0.377,0.414,0.461,0.574c0.083,0.162,0.125,0.34,0.125,0.535
					c0,0.127-0.021,0.256-0.061,0.383c-0.041,0.129-0.103,0.281-0.186,0.457c-0.122,0.234-0.183,0.432-0.183,0.592
					c0,0.113,0.021,0.213,0.062,0.299c0.04,0.088,0.131,0.199,0.271,0.34l-0.482,0.479c-0.145-0.143-0.26-0.273-0.347-0.391
					s-0.148-0.232-0.185-0.342c-0.037-0.109-0.055-0.232-0.055-0.369c0-0.143,0.021-0.277,0.063-0.404
					c0.043-0.129,0.104-0.271,0.182-0.428c0.024-0.051,0.046-0.098,0.065-0.141s0.041-0.098,0.063-0.164
					c0.022-0.068,0.037-0.119,0.044-0.154c0.008-0.035,0.011-0.082,0.011-0.141c0-0.115-0.021-0.217-0.063-0.305
					c-0.043-0.088-0.133-0.199-0.27-0.334L40.263,17.854z"/>
				<path d="M42.361,14.987v0.766h-4.508l0.915,1.043h-0.846l-0.901-1.043v-0.766H42.361z"/>
				<path d="M42.361,11.108v0.766h-4.508l0.915,1.043h-0.846l-0.901-1.043v-0.766H42.361z"/>
			</g>
			<g>
				<path d="M35.184,15.987v0.766h-4.508l0.915,1.043h-0.846l-0.901-1.043v-0.766H35.184z"/>
				<path d="M35.184,11.192v3.105h-0.682l-2.497-2.055c-0.234-0.189-0.473-0.285-0.714-0.285c-0.154,0-0.294,0.029-0.42,0.092
					c-0.126,0.061-0.222,0.15-0.289,0.27c-0.067,0.121-0.101,0.26-0.101,0.418c0,0.225,0.067,0.412,0.201,0.563
					c0.135,0.15,0.342,0.225,0.623,0.225v0.766c-0.223,0-0.428-0.039-0.615-0.115c-0.188-0.076-0.349-0.186-0.48-0.324
					s-0.232-0.303-0.304-0.49c-0.07-0.188-0.106-0.396-0.106-0.623c0-0.305,0.062-0.574,0.184-0.807
					c0.122-0.234,0.297-0.414,0.523-0.545c0.228-0.129,0.491-0.193,0.791-0.193c0.22,0,0.411,0.037,0.573,0.113
					s0.357,0.205,0.584,0.389l2.047,1.674v-2.176H35.184z"/>
			</g>
			<g>
				<path d="M27.718,15.987v0.766H23.21l0.915,1.043h-0.846l-0.901-1.043v-0.766H27.718z"/>
				<path d="M26.217,11.185c0.33,0,0.611,0.072,0.846,0.219c0.234,0.145,0.41,0.342,0.528,0.592
					c0.119,0.248,0.178,0.523,0.178,0.826c0,0.463-0.126,0.846-0.378,1.152c-0.253,0.307-0.625,0.467-1.118,0.482V13.69
					c0.269-0.016,0.47-0.105,0.605-0.27c0.135-0.166,0.202-0.365,0.202-0.6c0-0.256-0.078-0.465-0.235-0.627
					s-0.373-0.244-0.648-0.244c-0.273,0-0.487,0.076-0.642,0.227c-0.155,0.152-0.232,0.375-0.232,0.668v0.123h-0.674v-0.123
					c0-0.273-0.07-0.479-0.212-0.613c-0.141-0.133-0.34-0.201-0.596-0.201c-0.261,0-0.463,0.074-0.606,0.223
					c-0.144,0.146-0.215,0.338-0.215,0.568s0.067,0.416,0.202,0.557c0.136,0.143,0.322,0.225,0.561,0.246v0.766
					c-0.231-0.016-0.437-0.063-0.613-0.145c-0.178-0.082-0.329-0.193-0.455-0.334s-0.223-0.303-0.29-0.488s-0.101-0.387-0.101-0.602
					c0-0.303,0.063-0.572,0.19-0.807c0.127-0.236,0.304-0.42,0.529-0.549c0.227-0.131,0.484-0.197,0.775-0.197
					c0.542,0,0.922,0.223,1.14,0.668c0.107-0.24,0.265-0.426,0.472-0.557C25.638,11.251,25.899,11.185,26.217,11.185z"/>
			</g>
			<g>
				<path d="M119.456,133.265v0.863l-1.072,0.365v2.107l1.072,0.367v0.863l-5.338-1.957v-0.652L119.456,133.265z M117.694,134.72
					l-2.368,0.809l2.368,0.832V134.72z"/>
				<path d="M118.655,129.591v0.57h0.801v0.744h-0.801v2.156h-0.715l-3.822-1.881v-0.824l3.822,1.875v-1.326h-1.244v-0.744h1.244
					v-0.57H118.655z"/>
			</g>
			<g>
				<path d="M112.345,133.265v0.863l-1.074,0.365v2.107l1.074,0.367v0.863l-5.34-1.957v-0.652L112.345,133.265z M110.583,134.72
					l-2.369,0.809l2.369,0.832V134.72z"/>
				<path d="M110.844,129.741c0.329,0,0.611,0.072,0.845,0.217c0.234,0.146,0.411,0.342,0.529,0.592
					c0.119,0.248,0.178,0.525,0.178,0.828c0,0.461-0.126,0.846-0.379,1.15c-0.252,0.307-0.625,0.467-1.117,0.482v-0.766
					c0.268-0.014,0.47-0.104,0.605-0.27c0.135-0.164,0.202-0.363,0.202-0.598c0-0.258-0.079-0.467-0.235-0.629
					c-0.157-0.162-0.373-0.244-0.648-0.244c-0.273,0-0.487,0.076-0.643,0.229c-0.154,0.15-0.231,0.373-0.231,0.666v0.125h-0.674
					v-0.125c0-0.273-0.071-0.477-0.212-0.611s-0.34-0.201-0.596-0.201c-0.261,0-0.463,0.074-0.606,0.221
					c-0.144,0.148-0.216,0.338-0.216,0.57c0,0.229,0.068,0.414,0.203,0.557c0.135,0.141,0.322,0.223,0.561,0.244v0.766
					c-0.232-0.014-0.437-0.063-0.613-0.145c-0.178-0.082-0.33-0.193-0.455-0.332c-0.127-0.141-0.223-0.305-0.29-0.49
					s-0.101-0.385-0.101-0.6c0-0.303,0.063-0.572,0.19-0.809c0.127-0.234,0.304-0.418,0.529-0.549s0.484-0.195,0.774-0.195
					c0.543,0,0.923,0.223,1.141,0.666c0.107-0.238,0.265-0.424,0.472-0.555C110.265,129.806,110.526,129.741,110.844,129.741z"/>
			</g>
			<g>
				<path d="M105.083,133.265v0.863l-1.073,0.365v2.107l1.073,0.367v0.863l-5.34-1.957v-0.652L105.083,133.265z M103.321,134.72
					l-2.369,0.809l2.369,0.832V134.72z"/>
				<path d="M105.083,129.747v3.105h-0.682l-2.497-2.055c-0.234-0.189-0.473-0.285-0.714-0.285c-0.154,0-0.294,0.031-0.42,0.092
					s-0.222,0.152-0.289,0.271s-0.101,0.258-0.101,0.418c0,0.225,0.067,0.412,0.201,0.561c0.135,0.15,0.342,0.227,0.623,0.227v0.766
					c-0.223,0-0.428-0.039-0.615-0.115c-0.188-0.078-0.349-0.186-0.48-0.324c-0.132-0.141-0.232-0.303-0.304-0.492
					c-0.07-0.188-0.106-0.395-0.106-0.621c0-0.307,0.062-0.574,0.184-0.809c0.122-0.232,0.297-0.414,0.523-0.543
					c0.228-0.129,0.491-0.195,0.791-0.195c0.22,0,0.411,0.039,0.573,0.113c0.162,0.076,0.357,0.205,0.584,0.389l2.047,1.674v-2.176
					H105.083z"/>
			</g>
			<g>
				<path d="M98.017,133.264v0.863l-1.073,0.366v2.107l1.073,0.366v0.863l-5.339-1.957v-0.651L98.017,133.264z M96.255,134.72
					l-2.369,0.809l2.369,0.831V134.72z"/>
				<path d="M98.017,130.663v0.766h-4.508l0.915,1.043h-0.846l-0.9-1.043v-0.766H98.017z"/>
			</g>
			<g>
				<path d="M90.665,133.265v0.863l-1.073,0.366v2.107l1.073,0.366v0.863l-5.34-1.957v-0.651L90.665,133.265z M88.903,134.721
					l-2.369,0.809l2.369,0.831V134.721z"/>
				<path d="M89.178,129.785c0.311,0,0.581,0.068,0.812,0.205s0.408,0.322,0.533,0.559c0.124,0.235,0.187,0.496,0.187,0.781
					c0,0.286-0.063,0.546-0.187,0.78c-0.125,0.234-0.303,0.419-0.535,0.555c-0.231,0.136-0.502,0.203-0.81,0.203h-2.369
					c-0.231,0-0.442-0.039-0.632-0.117s-0.352-0.188-0.487-0.331c-0.135-0.143-0.237-0.308-0.306-0.494
					c-0.068-0.188-0.103-0.386-0.103-0.596s0.035-0.409,0.104-0.599s0.171-0.354,0.304-0.494c0.134-0.141,0.295-0.251,0.485-0.331
					c0.19-0.081,0.402-0.121,0.634-0.121H89.178z M89.156,130.551h-2.325c-0.169,0-0.319,0.03-0.451,0.093s-0.234,0.154-0.308,0.274
					c-0.073,0.121-0.109,0.259-0.109,0.412c0,0.156,0.036,0.294,0.109,0.412s0.176,0.208,0.308,0.27
					c0.132,0.061,0.282,0.092,0.451,0.092h2.325c0.261,0,0.472-0.069,0.632-0.207c0.159-0.139,0.239-0.327,0.239-0.566
					c0-0.241-0.08-0.432-0.239-0.571C89.628,130.62,89.417,130.551,89.156,130.551z"/>
			</g>
			<g>
				<path d="M118.345,123.269c0.174,0,0.332,0.033,0.477,0.102s0.268,0.166,0.367,0.293c0.102,0.129,0.178,0.277,0.229,0.447
					s0.076,0.359,0.076,0.564c0,0.299-0.039,0.559-0.119,0.779c-0.08,0.223-0.213,0.424-0.398,0.609l-0.393-0.398
					c0.09-0.088,0.164-0.184,0.221-0.287c0.057-0.105,0.098-0.217,0.121-0.336c0.023-0.117,0.035-0.244,0.035-0.377
					c0-0.254-0.053-0.451-0.158-0.594c-0.105-0.145-0.254-0.215-0.443-0.215c-0.176,0-0.311,0.051-0.404,0.154
					c-0.047,0.047-0.082,0.102-0.105,0.164c-0.023,0.061-0.045,0.148-0.061,0.264l-0.064,0.463c-0.045,0.318-0.15,0.566-0.314,0.742
					c-0.178,0.191-0.426,0.285-0.746,0.285c-0.227,0-0.428-0.053-0.602-0.158s-0.309-0.258-0.404-0.453
					c-0.096-0.197-0.143-0.43-0.143-0.695c0-0.264,0.035-0.492,0.105-0.684c0.072-0.191,0.185-0.369,0.34-0.533l0.375,0.381
					c-0.076,0.078-0.137,0.162-0.18,0.252c-0.045,0.09-0.076,0.184-0.095,0.279c-0.019,0.098-0.028,0.203-0.028,0.32
					c0,0.148,0.026,0.275,0.078,0.383c0.051,0.107,0.123,0.189,0.215,0.246s0.197,0.086,0.316,0.086
					c0.154,0,0.275-0.051,0.363-0.148c0.041-0.049,0.078-0.111,0.111-0.191c0.033-0.078,0.057-0.162,0.068-0.25l0.066-0.445
					c0.027-0.18,0.064-0.324,0.109-0.439c0.045-0.113,0.105-0.211,0.182-0.291C117.728,123.374,117.995,123.269,118.345,123.269z"/>
				<path d="M117.478,119.776h0.195c0.211,0,0.396,0.008,0.553,0.023c0.158,0.016,0.313,0.053,0.465,0.111s0.287,0.146,0.402,0.262
					c0.246,0.246,0.369,0.584,0.369,1.014v1.377h-3.916v-1.377c0-0.43,0.123-0.768,0.368-1.014c0.116-0.115,0.247-0.203,0.392-0.262
					s0.293-0.096,0.443-0.111s0.326-0.023,0.529-0.023H117.478z M117.478,120.37c-0.225,0-0.398,0.002-0.521,0.01
					c-0.121,0.008-0.236,0.027-0.344,0.059s-0.197,0.078-0.266,0.141c-0.178,0.16-0.266,0.383-0.266,0.666v0.719h2.846v-0.719
					c0-0.285-0.088-0.508-0.262-0.666c-0.104-0.094-0.242-0.152-0.416-0.176C118.073,120.38,117.817,120.37,117.478,120.37z"/>
				<path d="M119.462,116.101v0.633l-0.787,0.27v1.545l0.787,0.27v0.633l-3.916-1.436v-0.479L119.462,116.101z M118.169,117.169
					l-1.736,0.594l1.736,0.609V117.169z"/>
			</g>
			<g>
				<path d="M123.144,87.63h0.633l0.27,0.787h1.545l0.27-0.787h0.633l-1.436,3.916h-0.479L123.144,87.63z M124.212,88.922
					l0.594,1.737l0.609-1.737H124.212z"/>
				<path d="M119.894,89.614v-0.195c0-0.212,0.008-0.396,0.025-0.554c0.016-0.157,0.053-0.313,0.111-0.465
					c0.057-0.151,0.145-0.286,0.262-0.402c0.246-0.245,0.582-0.368,1.014-0.368h1.375v3.916h-1.375
					c-0.432,0-0.768-0.123-1.014-0.368c-0.117-0.116-0.205-0.247-0.262-0.393c-0.059-0.145-0.096-0.292-0.111-0.442
					c-0.018-0.15-0.025-0.327-0.025-0.529V89.614z M120.487,89.613c0,0.226,0.004,0.399,0.01,0.521
					c0.008,0.122,0.027,0.237,0.059,0.345s0.078,0.196,0.141,0.266c0.162,0.178,0.383,0.266,0.666,0.266h0.721v-2.847h-0.721
					c-0.285,0-0.506,0.088-0.666,0.263c-0.092,0.103-0.15,0.241-0.174,0.416C120.499,89.019,120.487,89.274,120.487,89.613z"/>
				<path d="M116.44,88.802c0.031-0.193,0.09-0.365,0.172-0.518c0.084-0.15,0.186-0.277,0.307-0.379s0.26-0.178,0.416-0.229
					s0.324-0.078,0.502-0.078c0.135,0,0.264,0.016,0.385,0.047s0.236,0.079,0.348,0.144s0.209,0.14,0.295,0.226
					c0.121,0.126,0.209,0.259,0.264,0.4c0.053,0.142,0.086,0.295,0.1,0.46c0.012,0.166,0.018,0.404,0.018,0.714
					c0,0.237-0.002,0.427-0.008,0.566c-0.008,0.14-0.021,0.268-0.043,0.384c-0.023,0.117-0.061,0.226-0.111,0.326
					c-0.051,0.102-0.123,0.2-0.219,0.297c-0.137,0.137-0.291,0.24-0.465,0.311s-0.361,0.105-0.563,0.105
					c-0.367,0-0.676-0.104-0.924-0.312s-0.406-0.505-0.473-0.893h0.605c0.047,0.206,0.139,0.368,0.273,0.489
					s0.307,0.181,0.518,0.181c0.113,0,0.221-0.021,0.322-0.062s0.188-0.1,0.258-0.174c0.051-0.058,0.092-0.115,0.119-0.174
					c0.029-0.058,0.053-0.135,0.07-0.23s0.029-0.203,0.037-0.322c0.006-0.12,0.01-0.284,0.01-0.493c0-0.208-0.004-0.37-0.01-0.489
					c-0.008-0.119-0.02-0.227-0.037-0.323s-0.041-0.173-0.07-0.229c-0.027-0.057-0.068-0.115-0.119-0.178
					c-0.07-0.073-0.156-0.131-0.258-0.174c-0.102-0.041-0.209-0.063-0.322-0.063c-0.143,0-0.268,0.027-0.375,0.084
					c-0.107,0.055-0.195,0.133-0.268,0.235c-0.072,0.102-0.123,0.219-0.152,0.351H116.44z"/>
				<path d="M113.625,88.79c0-0.234,0.049-0.443,0.146-0.625s0.234-0.321,0.409-0.42c0.176-0.098,0.376-0.147,0.6-0.147
					c0.226,0,0.427,0.048,0.603,0.143c0.177,0.095,0.313,0.23,0.411,0.408c0.098,0.177,0.146,0.384,0.146,0.62
					c0,0.1-0.013,0.203-0.036,0.309c-0.024,0.105-0.058,0.211-0.101,0.317c-0.043,0.105-0.095,0.218-0.153,0.335l-0.892,1.816h-0.6
					L115,89.861c-0.095,0.042-0.21,0.062-0.347,0.062c-0.189,0-0.362-0.047-0.518-0.141c-0.156-0.094-0.28-0.227-0.372-0.4
					C113.671,89.21,113.625,89.013,113.625,88.79z M114.187,88.779c0,0.196,0.054,0.358,0.162,0.486
					c0.108,0.127,0.254,0.19,0.437,0.19c0.181,0,0.325-0.061,0.433-0.183s0.161-0.286,0.161-0.494c0-0.136-0.025-0.256-0.075-0.36
					c-0.05-0.104-0.12-0.184-0.211-0.238c-0.09-0.056-0.192-0.084-0.308-0.084c-0.175,0-0.319,0.063-0.431,0.188
					C114.242,88.408,114.187,88.573,114.187,88.779z"/>
			</g>
			<g>
				<path d="M123.144,94.419h0.633l0.27,0.787h1.545l0.27-0.787h0.633l-1.436,3.916h-0.479L123.144,94.419z M124.212,95.711
					l0.594,1.737l0.609-1.737H124.212z"/>
				<path d="M119.894,96.403v-0.195c0-0.212,0.008-0.396,0.025-0.554c0.016-0.157,0.053-0.313,0.111-0.465
					c0.057-0.151,0.145-0.286,0.262-0.402c0.246-0.245,0.582-0.368,1.014-0.368h1.375v3.916h-1.375
					c-0.432,0-0.768-0.123-1.014-0.368c-0.117-0.116-0.205-0.247-0.262-0.393c-0.059-0.145-0.096-0.292-0.111-0.442
					c-0.018-0.15-0.025-0.327-0.025-0.529V96.403z M120.487,96.402c0,0.226,0.004,0.399,0.01,0.521
					c0.008,0.122,0.027,0.237,0.059,0.345s0.078,0.196,0.141,0.266c0.162,0.178,0.383,0.266,0.666,0.266h0.721v-2.847h-0.721
					c-0.285,0-0.506,0.088-0.666,0.263c-0.092,0.103-0.15,0.241-0.174,0.416C120.499,95.808,120.487,96.063,120.487,96.402z"/>
				<path d="M116.44,95.591c0.031-0.193,0.09-0.365,0.172-0.518c0.084-0.15,0.186-0.277,0.307-0.379s0.26-0.178,0.416-0.229
					s0.324-0.078,0.502-0.078c0.135,0,0.264,0.016,0.385,0.047s0.236,0.079,0.348,0.144s0.209,0.14,0.295,0.226
					c0.121,0.126,0.209,0.259,0.264,0.4c0.053,0.142,0.086,0.295,0.1,0.46c0.012,0.166,0.018,0.404,0.018,0.714
					c0,0.237-0.002,0.427-0.008,0.566c-0.008,0.14-0.021,0.268-0.043,0.384c-0.023,0.117-0.061,0.226-0.111,0.326
					c-0.051,0.102-0.123,0.2-0.219,0.297c-0.137,0.137-0.291,0.24-0.465,0.311s-0.361,0.105-0.563,0.105
					c-0.367,0-0.676-0.104-0.924-0.312s-0.406-0.505-0.473-0.893h0.605c0.047,0.206,0.139,0.368,0.273,0.489
					s0.307,0.181,0.518,0.181c0.113,0,0.221-0.021,0.322-0.062s0.188-0.1,0.258-0.174c0.051-0.058,0.092-0.115,0.119-0.174
					c0.029-0.058,0.053-0.135,0.07-0.23s0.029-0.203,0.037-0.322c0.006-0.12,0.01-0.284,0.01-0.493c0-0.208-0.004-0.37-0.01-0.489
					c-0.008-0.119-0.02-0.227-0.037-0.323s-0.041-0.173-0.07-0.229c-0.027-0.057-0.068-0.115-0.119-0.178
					c-0.07-0.073-0.156-0.131-0.258-0.174c-0.102-0.041-0.209-0.063-0.322-0.063c-0.143,0-0.268,0.027-0.375,0.084
					c-0.107,0.055-0.195,0.133-0.268,0.235c-0.072,0.102-0.123,0.219-0.152,0.351H116.44z"/>
				<path d="M113.571,97.835l1.309-3.416h0.604l-1.313,3.416h1.191v-0.617h0.54v1.117h-2.331V97.835z"/>
			</g>
			<g>
				<path d="M66.524,134.771c0.255,0,0.468,0.027,0.641,0.08s0.327,0.143,0.464,0.271c0.297,0.281,0.445,0.641,0.445,1.078
					c0,0.135-0.016,0.264-0.047,0.385s-0.079,0.236-0.144,0.348s-0.14,0.209-0.226,0.295c-0.125,0.121-0.259,0.209-0.4,0.264
					c-0.142,0.053-0.295,0.086-0.46,0.1c-0.166,0.012-0.403,0.018-0.714,0.018c-0.237,0-0.427-0.002-0.566-0.008
					c-0.14-0.008-0.268-0.021-0.384-0.043c-0.116-0.023-0.226-0.061-0.326-0.111c-0.102-0.051-0.2-0.123-0.297-0.219
					c-0.277-0.277-0.416-0.619-0.416-1.027c0-0.268,0.053-0.502,0.158-0.703s0.251-0.361,0.436-0.482
					c0.185-0.119,0.392-0.199,0.621-0.238v0.598c-0.141,0.033-0.263,0.086-0.364,0.16c-0.102,0.072-0.18,0.166-0.234,0.277
					s-0.082,0.24-0.082,0.389c0,0.109,0.021,0.217,0.064,0.32s0.102,0.189,0.177,0.26c0.105,0.094,0.236,0.156,0.393,0.188
					s0.431,0.049,0.822,0.049c0.207,0,0.37-0.004,0.489-0.01c0.118-0.008,0.227-0.02,0.322-0.037
					c0.097-0.018,0.173-0.041,0.229-0.07c0.057-0.027,0.116-0.068,0.179-0.119c0.073-0.07,0.131-0.156,0.173-0.258
					s0.063-0.209,0.063-0.322c0-0.266-0.092-0.479-0.276-0.637c-0.151-0.133-0.355-0.199-0.613-0.199h-0.22v0.836h-0.505v-1.43
					H66.524z"/>
				<path d="M68.042,131.036v0.545l-2.755,1.809h2.755v0.598h-3.915v-0.547l2.75-1.811h-2.75v-0.594H68.042z"/>
				<path d="M66.058,127.317h0.196c0.211,0,0.396,0.008,0.553,0.023c0.158,0.016,0.313,0.053,0.465,0.111s0.286,0.146,0.402,0.262
					c0.246,0.246,0.368,0.584,0.368,1.014v1.377h-3.915v-1.377c0-0.43,0.122-0.768,0.367-1.014c0.117-0.115,0.247-0.203,0.393-0.262
					c0.145-0.059,0.293-0.096,0.443-0.111s0.326-0.023,0.528-0.023H66.058z M66.059,127.911c-0.225,0-0.399,0.002-0.521,0.01
					s-0.237,0.027-0.345,0.059s-0.196,0.078-0.266,0.141c-0.177,0.16-0.266,0.383-0.266,0.666v0.719h2.847v-0.719
					c0-0.285-0.088-0.508-0.263-0.666c-0.103-0.094-0.241-0.152-0.416-0.176C66.653,127.921,66.397,127.911,66.059,127.911z"/>
			</g>
			<g>
				<path d="M18.806,18.681c0.254,0,0.468,0.027,0.641,0.08s0.327,0.145,0.463,0.273c0.298,0.281,0.446,0.639,0.446,1.076
					c0,0.137-0.016,0.264-0.047,0.385s-0.079,0.238-0.144,0.348c-0.064,0.111-0.14,0.211-0.226,0.297
					c-0.126,0.121-0.259,0.209-0.4,0.262c-0.142,0.055-0.295,0.088-0.461,0.1c-0.165,0.014-0.403,0.02-0.713,0.02
					c-0.238,0-0.427-0.004-0.566-0.01s-0.268-0.02-0.384-0.043c-0.117-0.021-0.226-0.059-0.327-0.109
					c-0.101-0.051-0.199-0.125-0.296-0.219c-0.278-0.277-0.417-0.621-0.417-1.029c0-0.268,0.053-0.5,0.159-0.703
					c0.105-0.201,0.251-0.361,0.436-0.48c0.185-0.121,0.392-0.201,0.621-0.24v0.6c-0.142,0.031-0.263,0.084-0.365,0.158
					c-0.102,0.074-0.18,0.166-0.234,0.277c-0.055,0.113-0.081,0.242-0.081,0.389c0,0.111,0.021,0.219,0.063,0.32
					c0.043,0.104,0.103,0.189,0.178,0.26c0.105,0.096,0.236,0.158,0.393,0.189s0.43,0.047,0.821,0.047
					c0.207,0,0.37-0.004,0.489-0.01s0.227-0.018,0.323-0.035c0.097-0.02,0.173-0.041,0.229-0.07
					c0.056-0.029,0.115-0.068,0.178-0.121c0.073-0.07,0.131-0.156,0.173-0.256c0.042-0.102,0.063-0.209,0.063-0.324
					c0-0.266-0.093-0.477-0.276-0.637c-0.152-0.133-0.356-0.199-0.613-0.199h-0.22v0.836h-0.505v-1.43H18.806z"/>
				<path d="M20.323,14.948v0.545L17.567,17.3h2.756v0.6h-3.916v-0.549l2.75-1.809h-2.75v-0.594H20.323z"/>
				<path d="M18.339,11.228h0.195c0.212,0,0.396,0.008,0.554,0.025c0.157,0.016,0.313,0.053,0.465,0.111
					c0.151,0.057,0.286,0.145,0.402,0.262c0.245,0.246,0.368,0.582,0.368,1.014v1.375h-3.916V12.64c0-0.432,0.123-0.768,0.368-1.014
					c0.116-0.117,0.247-0.205,0.393-0.262c0.145-0.059,0.292-0.096,0.442-0.111c0.15-0.018,0.327-0.025,0.529-0.025H18.339z
					 M18.34,11.821c-0.226,0-0.399,0.004-0.521,0.01c-0.123,0.008-0.238,0.027-0.346,0.059c-0.106,0.031-0.195,0.078-0.266,0.141
					c-0.177,0.162-0.265,0.383-0.265,0.666v0.721h2.847v-0.721c0-0.285-0.088-0.506-0.264-0.666c-0.102-0.092-0.24-0.15-0.416-0.174
					C18.935,11.833,18.678,11.821,18.34,11.821z"/>
			</g>
			<g>
				<path d="M12.939,20.972v0.633l-0.787,0.27v1.545l0.787,0.27v0.633l-3.915-1.436v-0.479L12.939,20.972z M11.647,22.04
					L9.91,22.634l1.737,0.609V22.04z"/>
				<path d="M12.939,17.651v0.693l-1.646,0.824v0.742h1.646v0.598H9.024v-1.521c0-0.24,0.049-0.453,0.146-0.639
					c0.098-0.184,0.232-0.326,0.405-0.426c0.174-0.1,0.371-0.15,0.593-0.15c0.27,0,0.494,0.072,0.674,0.217
					c0.181,0.145,0.303,0.332,0.367,0.563L12.939,17.651z M10.175,18.366c-0.191,0-0.342,0.061-0.451,0.182
					c-0.11,0.121-0.165,0.283-0.165,0.484v0.879h1.225v-0.879c0-0.201-0.055-0.361-0.163-0.482
					C10.511,18.427,10.362,18.366,10.175,18.366z"/>
				<path d="M12.939,14.489v2.506H9.024v-2.506h0.534v1.908H10.7v-1.629h0.528v1.629h1.177v-1.908H12.939z"/>
				<path d="M9.559,11.261v1.908h1.192V11.54h0.534v1.629h1.654v0.598H9.024v-2.506H9.559z"/>
			</g>
			<g>
				<path d="M59.23,134.771c0.254,0,0.468,0.027,0.641,0.08s0.327,0.143,0.463,0.271c0.298,0.281,0.446,0.641,0.446,1.078
					c0,0.135-0.016,0.264-0.047,0.385s-0.079,0.236-0.144,0.348s-0.14,0.209-0.226,0.295c-0.126,0.121-0.259,0.209-0.4,0.264
					c-0.142,0.053-0.295,0.086-0.461,0.1c-0.165,0.012-0.403,0.018-0.713,0.018c-0.238,0-0.427-0.002-0.566-0.008
					c-0.14-0.008-0.268-0.021-0.384-0.043c-0.117-0.023-0.226-0.061-0.327-0.111c-0.101-0.051-0.199-0.123-0.296-0.219
					c-0.278-0.277-0.417-0.619-0.417-1.027c0-0.268,0.053-0.502,0.159-0.703c0.105-0.201,0.251-0.361,0.436-0.482
					c0.185-0.119,0.392-0.199,0.621-0.238v0.598c-0.142,0.033-0.263,0.086-0.365,0.16c-0.102,0.072-0.18,0.166-0.234,0.277
					s-0.081,0.24-0.081,0.389c0,0.109,0.021,0.217,0.063,0.32c0.043,0.104,0.103,0.189,0.178,0.26
					c0.105,0.094,0.236,0.156,0.393,0.188s0.43,0.049,0.821,0.049c0.207,0,0.37-0.004,0.489-0.01
					c0.119-0.008,0.227-0.02,0.323-0.037s0.173-0.041,0.229-0.07c0.056-0.027,0.115-0.068,0.178-0.119
					c0.073-0.07,0.131-0.156,0.173-0.258s0.063-0.209,0.063-0.322c0-0.266-0.093-0.479-0.276-0.637
					c-0.152-0.133-0.356-0.199-0.613-0.199h-0.22v0.836h-0.505v-1.43H59.23z"/>
				<path d="M60.748,131.036v0.545l-2.756,1.809h2.756v0.598h-3.916v-0.547l2.75-1.811h-2.75v-0.594H60.748z"/>
				<path d="M58.764,127.317h0.195c0.212,0,0.396,0.008,0.554,0.023c0.157,0.016,0.313,0.053,0.465,0.111
					c0.151,0.059,0.286,0.146,0.402,0.262c0.245,0.246,0.368,0.584,0.368,1.014v1.377h-3.916v-1.377c0-0.43,0.123-0.768,0.368-1.014
					c0.116-0.115,0.247-0.203,0.393-0.262c0.145-0.059,0.292-0.096,0.442-0.111s0.327-0.023,0.529-0.023H58.764z M58.765,127.911
					c-0.226,0-0.399,0.002-0.521,0.01c-0.123,0.008-0.238,0.027-0.346,0.059c-0.106,0.031-0.195,0.078-0.266,0.141
					c-0.177,0.16-0.265,0.383-0.265,0.666v0.719h2.847v-0.719c0-0.285-0.088-0.508-0.264-0.666c-0.102-0.094-0.24-0.152-0.416-0.176
					C59.359,127.921,59.103,127.911,58.765,127.911z"/>
			</g>
			<g>
				<path d="M52.326,135.343c0.236,0,0.436,0.021,0.599,0.066s0.31,0.133,0.44,0.264c0.204,0.205,0.306,0.479,0.306,0.824
					c0,0.178-0.028,0.338-0.084,0.482c-0.057,0.145-0.129,0.262-0.217,0.354c-0.097,0.096-0.206,0.166-0.327,0.211
					c-0.122,0.045-0.263,0.074-0.422,0.086v-0.561c0.176-0.021,0.311-0.08,0.404-0.174c0.094-0.096,0.141-0.229,0.141-0.398
					c0-0.168-0.051-0.303-0.152-0.404c-0.077-0.078-0.172-0.129-0.284-0.152c-0.111-0.025-0.246-0.037-0.403-0.037
					c-0.262,0-0.464,0.043-0.607,0.129s-0.215,0.234-0.215,0.443c0,0.15,0.032,0.271,0.098,0.365s0.15,0.156,0.254,0.191v0.51
					h-2.138v-2.111h0.5v1.607h1.034c-0.15-0.146-0.226-0.363-0.226-0.65c0-0.301,0.084-0.535,0.252-0.703
					c0.133-0.135,0.285-0.227,0.457-0.271C51.907,135.366,52.104,135.343,52.326,135.343z"/>
				<path d="M49.718,132.058l3.916,1.297v0.465l-3.916,1.285v-0.617l2.85-0.898l-2.85-0.902V132.058z"/>
			</g>
			<g>
				<path d="M45.399,135.349c0.241,0,0.448,0.053,0.62,0.158c0.172,0.107,0.301,0.252,0.388,0.436
					c0.087,0.182,0.13,0.385,0.13,0.605c0,0.34-0.092,0.621-0.277,0.846s-0.458,0.342-0.819,0.354v-0.563
					c0.196-0.01,0.344-0.076,0.443-0.197s0.148-0.268,0.148-0.439c0-0.188-0.058-0.342-0.173-0.461s-0.273-0.178-0.476-0.178
					c-0.2,0-0.356,0.055-0.47,0.166c-0.114,0.111-0.171,0.275-0.171,0.49v0.09h-0.494v-0.09c0-0.201-0.052-0.352-0.155-0.449
					c-0.104-0.1-0.249-0.148-0.437-0.148c-0.191,0-0.34,0.055-0.445,0.162c-0.105,0.109-0.157,0.248-0.157,0.418
					c0,0.168,0.049,0.305,0.148,0.408c0.099,0.104,0.236,0.164,0.411,0.18v0.563c-0.17-0.012-0.32-0.047-0.45-0.107
					c-0.13-0.059-0.241-0.141-0.334-0.244c-0.092-0.102-0.163-0.223-0.212-0.357c-0.05-0.137-0.074-0.283-0.074-0.441
					c0-0.221,0.047-0.418,0.14-0.592c0.093-0.172,0.223-0.307,0.389-0.402c0.165-0.096,0.354-0.145,0.568-0.145
					c0.397,0,0.676,0.164,0.835,0.49c0.079-0.176,0.194-0.313,0.347-0.408S45.167,135.349,45.399,135.349z"/>
				<path d="M42.584,132.058l3.916,1.297v0.465l-3.916,1.285v-0.617l2.85-0.898l-2.85-0.902V132.058z"/>
				<path d="M45.399,129.489c0.241,0,0.448,0.053,0.62,0.16c0.172,0.105,0.301,0.25,0.388,0.434c0.087,0.182,0.13,0.385,0.13,0.607
					c0,0.338-0.092,0.619-0.277,0.844s-0.458,0.342-0.819,0.354v-0.561c0.196-0.012,0.344-0.078,0.443-0.197
					c0.1-0.121,0.148-0.268,0.148-0.439c0-0.189-0.058-0.342-0.173-0.461s-0.273-0.18-0.476-0.18c-0.2,0-0.356,0.057-0.47,0.168
					c-0.114,0.111-0.171,0.273-0.171,0.488v0.092h-0.494v-0.092c0-0.201-0.052-0.35-0.155-0.449
					c-0.104-0.098-0.249-0.146-0.437-0.146c-0.191,0-0.34,0.053-0.445,0.162c-0.105,0.107-0.157,0.248-0.157,0.418
					c0,0.168,0.049,0.305,0.148,0.408c0.099,0.104,0.236,0.164,0.411,0.18v0.561c-0.17-0.01-0.32-0.045-0.45-0.105
					s-0.241-0.141-0.334-0.244c-0.092-0.104-0.163-0.223-0.212-0.359c-0.05-0.135-0.074-0.283-0.074-0.439
					c0-0.223,0.047-0.42,0.14-0.592c0.093-0.174,0.223-0.309,0.389-0.404c0.165-0.096,0.354-0.143,0.568-0.143
					c0.397,0,0.676,0.162,0.835,0.488c0.079-0.176,0.194-0.311,0.347-0.406S45.167,129.489,45.399,129.489z"/>
			</g>
			<g>
				<path d="M39.365,134.612v0.693l-1.646,0.824v0.74h1.646v0.6h-3.916v-1.521c0-0.24,0.049-0.453,0.146-0.639
					s0.233-0.328,0.406-0.428s0.37-0.148,0.593-0.148c0.269,0,0.493,0.072,0.674,0.215c0.18,0.145,0.302,0.332,0.366,0.564
					L39.365,134.612z M36.601,135.327c-0.191,0-0.342,0.061-0.452,0.18c-0.109,0.121-0.164,0.283-0.164,0.486v0.877h1.225v-0.877
					c0-0.201-0.055-0.363-0.164-0.484C36.937,135.388,36.788,135.327,36.601,135.327z"/>
				<path d="M38.248,131.505c0.174,0,0.332,0.033,0.477,0.102c0.144,0.068,0.267,0.166,0.368,0.293
					c0.101,0.129,0.177,0.277,0.228,0.447c0.052,0.17,0.077,0.359,0.077,0.564c0,0.299-0.04,0.559-0.12,0.779
					c-0.08,0.223-0.213,0.424-0.398,0.609l-0.392-0.398c0.089-0.088,0.162-0.184,0.22-0.287c0.058-0.105,0.098-0.217,0.121-0.336
					c0.023-0.117,0.035-0.244,0.035-0.377c0-0.254-0.053-0.451-0.158-0.594c-0.105-0.145-0.253-0.215-0.442-0.215
					c-0.178,0-0.313,0.051-0.405,0.154c-0.046,0.047-0.082,0.102-0.105,0.164c-0.024,0.061-0.045,0.148-0.061,0.264l-0.064,0.463
					c-0.045,0.318-0.149,0.566-0.314,0.742c-0.177,0.191-0.426,0.285-0.746,0.285c-0.228,0-0.428-0.053-0.602-0.158
					s-0.309-0.258-0.404-0.453c-0.096-0.197-0.144-0.43-0.144-0.695c0-0.264,0.036-0.492,0.106-0.684
					c0.071-0.191,0.185-0.369,0.339-0.533l0.377,0.381c-0.077,0.078-0.138,0.162-0.182,0.252s-0.075,0.184-0.094,0.279
					c-0.019,0.098-0.028,0.203-0.028,0.32c0,0.148,0.026,0.275,0.078,0.383s0.123,0.189,0.216,0.246
					c0.092,0.057,0.196,0.086,0.314,0.086c0.155,0,0.277-0.051,0.364-0.148c0.042-0.049,0.078-0.111,0.111-0.191
					c0.033-0.078,0.057-0.162,0.068-0.25l0.067-0.445c0.026-0.18,0.063-0.324,0.108-0.439c0.046-0.113,0.106-0.211,0.181-0.291
					C37.631,131.61,37.898,131.505,38.248,131.505z"/>
				<path d="M35.984,128.394v1.076h3.381v0.594h-3.381v1.08h-0.535v-2.75H35.984z"/>
			</g>
			<g>
				<g>
					<path d="M28.717,38.867c0,0-0.95,0.402-1.398,0.62c0.179,0.528,0.524,1.467,0.524,1.467c0.772,2.122,1.629,4.08,2.536,5.9
						c-1.813,1.401-3.645,2.994-5.461,4.807c-0.352,0.367-0.759,0.812-1.173,1.307l0.002,0.001l-0.002,0.001
						c0.414,0.494,0.821,0.94,1.173,1.304c1.816,1.815,3.647,3.407,5.461,4.81c-0.907,1.822-1.764,3.777-2.536,5.898
						c0,0-0.346,0.942-0.524,1.468c0.448,0.218,1.398,0.621,1.398,0.621c7.239,2.826,13.778,3.74,19.196,3.74
						c9.799,0,15.913-2.984,16.025-3.036c5.858-2.659,9.33-8.505,9.326-14.64c0-0.037,0-0.295,0-0.333
						c0.004-6.134-3.468-11.979-9.326-14.64c-0.112-0.052-6.227-3.035-16.025-3.035C42.495,35.127,35.956,36.041,28.717,38.867z
						 M44.636,41.57c-2.718,2.03-6.046,5.049-9.248,9.293c-0.677-1.039-1.339-2.141-1.979-3.313
						C37.383,44.718,41.237,42.829,44.636,41.57z M55.486,51.784h-4.03c-0.085-1.891-0.372-3.601-0.749-5.082
						c1.652-0.349,3.252-0.548,4.779-0.616V51.784z M57.853,46.095c1.697,0.076,3.289,0.306,4.729,0.657
						c-0.372,1.474-0.656,3.163-0.733,5.032h-3.995V46.095z M49.09,51.784H38.785c3.289-2.156,6.533-3.609,9.623-4.505
						C48.748,48.593,49.01,50.113,49.09,51.784z M41.354,47.56c1.971-1.986,3.844-3.495,5.437-4.624
						c0.249,0.488,0.549,1.136,0.855,1.939c0.018,0.045,0.034,0.095,0.054,0.145C45.628,45.626,43.503,46.467,41.354,47.56z
						 M48.773,41.619c3.069-2.071,6.717-2.502,6.713-2.512v4.612c-1.753,0.068-3.588,0.297-5.482,0.712
						C49.566,43.225,49.116,42.267,48.773,41.619z M26.957,52.97L26.957,52.97h0.003v-0.001v-0.001h-0.002h-0.001
						c1.512-1.481,3.03-2.795,4.54-3.979c0.776,1.402,1.586,2.708,2.414,3.931l0.032,0.051l-0.032,0.049
						c-0.828,1.222-1.638,2.525-2.414,3.931C29.987,55.764,28.469,54.45,26.957,52.97z M33.408,58.388
						c0.641-1.174,1.303-2.273,1.979-3.313c3.202,4.245,6.53,7.263,9.248,9.292C41.237,63.107,37.383,61.22,33.408,58.388z
						 M46.79,63.003c-1.593-1.131-3.466-2.637-5.437-4.625c2.149,1.093,4.274,1.933,6.346,2.539c-0.02,0.05-0.036,0.101-0.054,0.146
						C47.339,61.864,47.039,62.514,46.79,63.003z M50.004,61.505c1.895,0.415,3.729,0.644,5.482,0.713v4.613
						c0-0.002-3.438-0.245-6.713-2.513C49.116,63.67,49.566,62.711,50.004,61.505z M49.92,68.387
						c-0.655,0.031-1.313,0.06-2.007,0.06c-4.973,0-10.947-0.81-17.605-3.301c0.623-1.648,1.298-3.19,2.008-4.646
						C38.993,65.196,45.337,67.38,49.92,68.387z M64.651,64.554c-1.967,1.307-4.291,2.118-6.799,2.281v-4.627
						c1.942-0.077,3.767-0.339,5.426-0.756C63.777,62.838,64.293,63.893,64.651,64.554z M69.402,59.155
						c-0.15,0.303-0.312,0.592-0.482,0.883c-0.657,1.105-1.457,2.118-2.388,3.004c-0.285-0.558-0.639-1.32-0.992-2.289
						c1.066-0.386,2.056-0.828,2.938-1.327c0.402-0.233,0.783-0.481,1.145-0.73C69.554,58.85,69.477,59.004,69.402,59.155z
						 M70.765,54.153c-0.514,1.011-1.649,2.206-3.457,3.212c-0.722,0.41-1.552,0.785-2.453,1.118
						c-0.319-1.275-0.552-2.732-0.628-4.33H70.765z M61.848,54.153c0.077,1.867,0.361,3.558,0.733,5.031
						c-1.439,0.352-3.031,0.581-4.729,0.656v-5.688H61.848z M55.486,54.153v5.697c-1.527-0.067-3.127-0.267-4.779-0.615
						c0.377-1.483,0.664-3.192,0.749-5.082H55.486z M49.09,54.153c-0.08,1.671-0.342,3.19-0.682,4.505
						c-3.09-0.896-6.334-2.35-9.623-4.505H49.09z M67.308,48.571c1.808,1.005,2.943,2.203,3.457,3.213h-6.538
						c0.076-1.598,0.309-3.057,0.628-4.332C65.756,47.787,66.586,48.162,67.308,48.571z M68.92,45.899
						c0.171,0.29,0.332,0.579,0.482,0.883c0.074,0.151,0.151,0.306,0.221,0.46c-0.361-0.25-0.742-0.498-1.145-0.729
						c-0.883-0.5-1.872-0.942-2.938-1.33c0.354-0.968,0.707-1.731,0.992-2.286C67.463,43.781,68.263,44.792,68.92,45.899z
						 M64.651,41.384c-0.358,0.661-0.874,1.715-1.373,3.103c-1.659-0.419-3.483-0.681-5.426-0.757v-4.627
						C60.36,39.266,62.685,40.075,64.651,41.384z M32.315,45.438c-0.71-1.456-1.385-2.997-2.008-4.646
						c6.658-2.489,12.633-3.3,17.605-3.3c0.693,0,1.352,0.028,2.007,0.06C45.337,38.557,38.993,40.739,32.315,45.438z"/>
				</g>
				<g>
					<path d="M69.318,40.259v-0.344h0.989v-0.249h-0.989v-0.345h-0.218v0.938H69.318z M69.088,37.873l0.652,0.586l-0.652,0.595
						v0.019h1.22v-0.237h-0.453c-0.082,0-0.212,0.009-0.212,0.009s0.106-0.073,0.171-0.13l0.268-0.238v-0.024l-0.268-0.239
						c-0.064-0.056-0.171-0.129-0.171-0.129s0.13,0.009,0.212,0.009h0.453v-0.239h-1.22V37.873z"/>
				</g>
			</g>
			<g>
				<path d="M135.224,59.348v22.083h-14.709V59.348H135.224z M134.724,80.931V59.848h-13.709v21.083H134.724z"/>
			</g>
			<g>
				<path d="M135.282,85.889v14.791h-7.664V85.889H135.282z M134.782,100.18V86.389h-6.664v13.791H134.782z"/>
			</g>
			<g>
				<path d="M24.73,108.764v22.208h-7.664v-22.208H24.73z M24.23,130.472v-21.208h-6.664v21.208H24.23z"/>
			</g>
			<g>
				<path d="M15.262,108.764v36.792H7.598v-36.792H15.262z M14.762,145.056v-35.792H8.098v35.792H14.762z"/>
			</g>
		</g>
		<g id="copper1">
			<g id="copper0">
				<g id="connector22pin">
					<path fill="#9A916C" d="M133.979,63.181c0,1.39-1.131,2.521-2.52,2.521s-2.52-1.131-2.52-2.521s1.131-2.521,2.52-2.521
						S133.979,61.791,133.979,63.181z M130.165,63.181c0,0.715,0.58,1.296,1.295,1.296s1.295-0.581,1.295-1.296
						s-0.58-1.296-1.295-1.296S130.165,62.466,130.165,63.181z"/>
				</g>
				<g id="connector22pin_6_">
					<path fill="#9A916C" d="M13.949,141.81c0,1.39-1.13,2.521-2.52,2.521s-2.52-1.131-2.52-2.521s1.13-2.521,2.52-2.521
						S13.949,140.42,13.949,141.81z M10.134,141.81c0,0.715,0.581,1.296,1.296,1.296s1.296-0.581,1.296-1.296
						s-0.581-1.296-1.296-1.296S10.134,141.095,10.134,141.81z"/>
				</g>
				<g id="connector22pin_7_">
					<path fill="#9A916C" d="M13.949,134.494c0,1.39-1.13,2.521-2.52,2.521s-2.52-1.131-2.52-2.521s1.13-2.521,2.52-2.521
						S13.949,133.104,13.949,134.494z M10.134,134.494c0,0.715,0.581,1.296,1.296,1.296s1.296-0.581,1.296-1.296
						s-0.581-1.296-1.296-1.296S10.134,133.779,10.134,134.494z"/>
				</g>
				<g id="connector22pin_8_">
					<path fill="#9A916C" d="M13.949,127.371c0,1.39-1.13,2.521-2.52,2.521s-2.52-1.131-2.52-2.521s1.13-2.521,2.52-2.521
						S13.949,125.981,13.949,127.371z M10.134,127.371c0,0.715,0.581,1.296,1.296,1.296s1.296-0.581,1.296-1.296
						s-0.581-1.296-1.296-1.296S10.134,126.656,10.134,127.371z"/>
				</g>
				<g id="connector22pin_9_">
					<path fill="#9A916C" d="M13.949,120.115c0,1.39-1.13,2.521-2.52,2.521s-2.52-1.131-2.52-2.521s1.13-2.521,2.52-2.521
						S13.949,118.726,13.949,120.115z M10.134,120.115c0,0.715,0.581,1.296,1.296,1.296s1.296-0.581,1.296-1.296
						s-0.581-1.296-1.296-1.296S10.134,119.4,10.134,120.115z"/>
				</g>
				<g id="connector22pin_10_">
					<path fill="#9A916C" d="M13.949,112.93c0,1.39-1.13,2.521-2.52,2.521s-2.52-1.131-2.52-2.521s1.13-2.521,2.52-2.521
						S13.949,111.54,13.949,112.93z M10.134,112.93c0,0.715,0.581,1.296,1.296,1.296s1.296-0.581,1.296-1.296
						s-0.581-1.296-1.296-1.296S10.134,112.215,10.134,112.93z"/>
				</g>
				<g id="connector22pin_11_">
					<path fill="#9A916C" d="M23.418,112.93c0,1.39-1.13,2.521-2.52,2.521s-2.52-1.131-2.52-2.521s1.13-2.521,2.52-2.521
						S23.418,111.54,23.418,112.93z M19.603,112.93c0,0.715,0.581,1.296,1.296,1.296s1.296-0.581,1.296-1.296
						s-0.581-1.296-1.296-1.296S19.603,112.215,19.603,112.93z"/>
				</g>
				<g id="connector22pin_12_">
					<path fill="#9A916C" d="M23.418,120.115c0,1.39-1.13,2.521-2.52,2.521s-2.52-1.131-2.52-2.521s1.13-2.521,2.52-2.521
						S23.418,118.726,23.418,120.115z M19.603,120.115c0,0.715,0.581,1.296,1.296,1.296s1.296-0.581,1.296-1.296
						s-0.581-1.296-1.296-1.296S19.603,119.4,19.603,120.115z"/>
				</g>
				<g id="connector22pin_13_">
					<path fill="#9A916C" d="M23.418,127.371c0,1.39-1.13,2.521-2.52,2.521s-2.52-1.131-2.52-2.521s1.13-2.521,2.52-2.521
						S23.418,125.981,23.418,127.371z M19.603,127.371c0,0.715,0.581,1.296,1.296,1.296s1.296-0.581,1.296-1.296
						s-0.581-1.296-1.296-1.296S19.603,126.656,19.603,127.371z"/>
				</g>
				<g id="connector22pin_1_">
					<path fill="#9A916C" d="M133.979,70.388c0,1.39-1.131,2.521-2.52,2.521s-2.52-1.131-2.52-2.521s1.131-2.521,2.52-2.521
						S133.979,68.998,133.979,70.388z M130.165,70.388c0,0.715,0.58,1.296,1.295,1.296s1.295-0.581,1.295-1.296
						s-0.58-1.296-1.295-1.296S130.165,69.673,130.165,70.388z"/>
				</g>
				<g id="connector22pin_2_">
					<path fill="#9A916C" d="M133.979,77.651c0,1.39-1.131,2.521-2.52,2.521s-2.52-1.131-2.52-2.521s1.131-2.521,2.52-2.521
						S133.979,76.262,133.979,77.651z M130.165,77.651c0,0.715,0.58,1.296,1.295,1.296s1.295-0.581,1.295-1.296
						s-0.58-1.296-1.295-1.296S130.165,76.937,130.165,77.651z"/>
				</g>
				<g id="connector22pin_14_">
					<path fill="#9A916C" d="M133.979,89.638c0,1.39-1.131,2.521-2.52,2.521s-2.52-1.131-2.52-2.521s1.131-2.521,2.52-2.521
						S133.979,88.248,133.979,89.638z M130.165,89.638c0,0.715,0.58,1.296,1.295,1.296s1.295-0.581,1.295-1.296
						s-0.58-1.296-1.295-1.296S130.165,88.923,130.165,89.638z"/>
				</g>
				<g id="connector22pin_15_">
					<path fill="#9A916C" d="M133.979,96.776c0,1.39-1.131,2.521-2.52,2.521s-2.52-1.131-2.52-2.521s1.131-2.521,2.52-2.521
						S133.979,95.387,133.979,96.776z M130.165,96.776c0,0.715,0.58,1.296,1.295,1.296s1.295-0.581,1.295-1.296
						s-0.58-1.296-1.295-1.296S130.165,96.062,130.165,96.776z"/>
				</g>
				<g id="connector22pin_3_">
					<path fill="#9A916C" d="M126.745,77.651c0,1.39-1.131,2.521-2.52,2.521s-2.52-1.131-2.52-2.521s1.131-2.521,2.52-2.521
						S126.745,76.262,126.745,77.651z M122.931,77.651c0,0.715,0.58,1.296,1.295,1.296s1.295-0.581,1.295-1.296
						s-0.58-1.296-1.295-1.296S122.931,76.937,122.931,77.651z"/>
				</g>
				<g id="connector22pin_4_">
					<path fill="#9A916C" d="M126.745,70.388c0,1.39-1.131,2.521-2.52,2.521s-2.52-1.131-2.52-2.521s1.131-2.521,2.52-2.521
						S126.745,68.998,126.745,70.388z M122.931,70.388c0,0.715,0.58,1.296,1.295,1.296s1.295-0.581,1.295-1.296
						s-0.58-1.296-1.295-1.296S122.931,69.673,122.931,70.388z"/>
				</g>
				<g id="connector22pin_5_">
					<path fill="#9A916C" d="M126.745,63.181c0,1.39-1.131,2.521-2.52,2.521s-2.52-1.131-2.52-2.521s1.131-2.521,2.52-2.521
						S126.745,61.791,126.745,63.181z M122.931,63.181c0,0.715,0.58,1.296,1.295,1.296s1.295-0.581,1.295-1.296
						s-0.58-1.296-1.295-1.296S122.931,62.466,122.931,63.181z"/>
				</g>
			</g>
		</g>
	</g>
</g>
</svg>
